<?xml version="1.0" standalone="no"?>
<!DOCTYPE svg PUBLIC "-//W3C//DTD SVG 20010904//EN"
 "http://www.w3.org/TR/2001/REC-SVG-20010904/DTD/svg10.dtd">
<svg version="1.0" xmlns="http://www.w3.org/2000/svg"
 width="1600.000000pt" height="1600.000000pt" viewBox="0 0 1600.000000 1600.000000"
 preserveAspectRatio="xMidYMid meet">

<g transform="translate(0.000000,1600.000000) scale(0.100000,-0.100000)"
fill="#000000" stroke="none">
<path d="M0 14485 c0 -1503 2 -1578 31 -1559 5 3 9 14 9 25 0 10 9 24 20 31
11 7 20 17 20 21 0 12 27 37 40 37 7 0 9 8 5 19 -4 13 1 27 14 40 10 10 16 22
13 26 -4 3 1 3 11 -1 12 -4 24 2 38 20 26 33 39 33 39 1 0 -30 20 -33 38 -4 7
11 32 29 55 39 l42 19 -56 0 c-48 1 -57 4 -62 21 -5 21 15 44 42 45 9 1 36 3
61 4 25 1 39 5 33 8 -8 2 -13 22 -13 44 0 24 -5 39 -12 39 -7 0 -1 11 14 25
18 17 39 25 63 25 32 0 35 2 35 30 0 20 10 39 30 58 23 22 30 38 30 66 0 25 4
36 15 36 11 0 15 -11 15 -40 0 -33 3 -40 20 -40 18 0 20 7 20 80 0 64 3 80 15
80 8 0 15 -4 15 -10 0 -5 7 -10 15 -10 8 0 15 5 15 10 0 6 11 10 25 10 16 0
25 6 25 15 0 11 7 14 25 9 21 -5 25 -3 25 16 0 19 -4 21 -25 16 -18 -5 -25 -2
-25 9 0 10 10 15 30 15 28 0 30 2 30 40 0 33 3 40 20 40 17 0 20 7 20 40 0 33
3 40 20 40 17 0 20 -7 20 -40 0 -22 5 -40 10 -40 6 0 10 18 10 40 0 38 2 40
30 40 28 0 30 2 30 40 0 33 3 40 20 40 17 0 20 7 20 40 0 39 -1 40 -37 41 -37
1 -38 1 -11 11 22 7 28 16 28 39 0 24 4 29 25 29 23 0 25 4 25 40 0 29 4 40
15 40 8 0 15 7 15 15 0 8 7 15 15 15 8 0 15 -7 15 -15 0 -9 9 -15 25 -15 23 0
25 -4 25 -40 0 -29 4 -40 15 -40 11 0 15 11 15 40 0 31 4 40 18 41 11 0 5 6
-15 16 -18 9 -33 20 -33 25 0 4 -7 8 -15 8 -8 0 -15 7 -15 15 0 8 7 15 15 15
8 0 15 -7 15 -15 0 -18 8 -18 40 0 l25 14 -32 1 c-23 0 -33 5 -33 15 0 11 11
15 40 15 29 0 40 -4 40 -15 0 -8 7 -15 15 -15 11 0 15 11 15 40 0 29 -4 40
-15 40 -9 0 -15 9 -15 22 0 20 1 20 19 4 18 -17 20 -16 32 17 9 27 20 37 42
41 52 11 62 7 63 -20 1 -14 4 -27 6 -30 9 -8 79 27 77 39 -4 31 2 35 41 30 39
-6 40 -5 40 26 0 18 -5 31 -12 31 -7 0 -21 12 -31 25 l-18 25 32 0 c18 0 41
-7 51 -17 17 -15 19 -15 38 2 11 10 20 28 20 41 0 18 5 22 24 21 14 -1 24 3
23 8 -1 6 -12 10 -24 10 -13 -1 -23 3 -23 7 0 4 -10 8 -22 8 -38 0 1 20 42 21
27 0 30 2 16 8 -19 7 -18 8 4 14 28 7 25 12 -12 21 -24 5 -28 3 -28 -14 0 -11
-7 -20 -15 -20 -11 0 -15 11 -15 40 0 22 -4 40 -10 40 -11 0 -13 52 -4 88 4
13 14 22 25 22 13 0 19 7 19 21 0 18 5 20 48 18 l47 -3 15 52 15 53 38 -7 c32
-5 41 -3 54 15 10 15 21 20 35 15 13 -4 24 -1 29 7 15 23 10 39 -12 39 -11 0
-17 5 -14 10 4 6 14 9 23 8 12 -2 17 4 17 20 0 13 10 31 21 40 12 9 24 25 27
35 9 25 26 21 38 -10 l11 -28 27 57 c17 38 32 58 44 58 9 0 17 7 17 15 0 8 6
15 14 15 7 0 25 9 40 21 14 11 26 16 26 10 0 -14 35 -14 61 -1 13 7 19 7 19 0
0 -5 9 -10 20 -10 11 0 20 7 20 15 0 27 23 65 40 65 11 0 16 8 16 23 -1 17 5
22 24 22 15 0 26 6 28 18 2 9 -2 17 -8 17 -6 0 -8 5 -5 10 10 17 25 11 25 -10
0 -13 12 -25 37 -35 41 -17 38 -18 47 13 6 18 3 22 -13 22 -25 0 -27 13 -6 30
8 7 15 27 15 44 0 27 7 37 40 59 32 20 40 23 40 10 0 -13 3 -13 16 -2 14 12
14 14 0 25 -24 17 -21 47 4 39 25 -8 60 3 60 18 0 7 9 18 20 25 12 7 20 8 20
2 0 -5 9 -10 20 -10 11 0 20 -6 20 -12 1 -7 8 -1 16 15 16 29 33 34 52 15 9
-9 12 -9 12 3 0 9 9 24 20 34 19 17 21 17 40 0 19 -17 20 -17 20 -1 0 10 -7
24 -15 33 -18 17 -11 33 14 33 10 0 21 9 24 20 3 11 10 20 17 20 7 0 14 -9 17
-20 8 -30 23 -24 23 9 0 24 6 31 38 44 22 9 39 11 43 5 7 -11 57 -38 70 -38 5
0 9 11 9 24 0 18 -9 29 -32 40 -28 14 -189 16 -1560 16 l-1528 0 0 -1515z
m2700 1351 c0 -3 -4 -8 -10 -11 -5 -3 -10 -1 -10 4 0 6 5 11 10 11 6 0 10 -2
10 -4z m-80 -72 c0 -15 -18 -18 -45 -7 -15 5 -14 8 6 19 26 14 39 10 39 -12z
m-446 -339 c-4 -8 -8 -15 -10 -15 -2 0 -4 7 -4 15 0 8 4 15 10 15 5 0 7 -7 4
-15z m-294 -255 c0 -5 -4 -10 -10 -10 -5 0 -10 5 -10 10 0 6 5 10 10 10 6 0
10 -4 10 -10z m-200 -164 c0 -7 -11 -21 -25 -30 -23 -15 -24 -15 -18 1 5 16
31 43 40 43 2 0 3 -6 3 -14z m-140 -86 c0 -5 -4 -10 -10 -10 -5 0 -10 5 -10
10 0 6 5 10 10 10 6 0 10 -4 10 -10z m-160 -322 c0 -7 -5 -20 -10 -28 -8 -12
-10 -9 -10 13 0 15 5 27 10 27 6 0 10 -6 10 -12z m92 -49 c17 -9 18 -13 7 -20
-23 -15 -39 -10 -39 11 0 23 4 24 32 9z m-1152 -1204 c0 -8 -4 -15 -9 -15 -5
0 -14 7 -21 15 -10 13 -9 15 9 15 12 0 21 -6 21 -15z m0 -50 c0 -9 -9 -15 -21
-15 -18 0 -19 2 -9 15 7 8 16 15 21 15 5 0 9 -7 9 -15z m-80 -72 c0 -25 -1
-26 -16 -11 -9 9 -13 21 -10 27 13 20 26 11 26 -16z m-153 -175 c-3 -7 -5 -2
-5 12 0 14 2 19 5 13 2 -7 2 -19 0 -25z"/>
<path d="M3120 15984 c0 -17 22 -14 28 4 2 7 -3 12 -12 12 -9 0 -16 -7 -16
-16z"/>
<path d="M3200 15989 c0 -5 5 -7 10 -4 6 3 10 8 10 11 0 2 -4 4 -10 4 -5 0
-10 -5 -10 -11z"/>
<path d="M13000 15960 c0 -33 3 -40 20 -40 13 0 20 7 20 19 0 10 11 26 24 35
42 27 77 -4 40 -34 -18 -15 -15 -66 4 -62 6 1 12 -2 12 -8 0 -5 18 -10 40 -10
36 0 40 -2 40 -26 0 -25 2 -26 46 -22 43 3 46 2 51 -24 4 -19 12 -28 24 -28
11 0 19 -4 19 -10 0 -5 5 -10 10 -10 6 0 10 7 10 15 0 20 27 8 33 -16 3 -11
14 -19 26 -19 17 0 21 -6 21 -31 0 -26 3 -30 20 -26 13 3 35 -7 64 -29 25 -19
52 -34 60 -34 11 0 16 -9 16 -30 0 -28 3 -30 36 -30 48 0 67 -20 58 -65 -5
-26 -3 -35 7 -35 8 0 20 -9 27 -20 7 -11 17 -20 22 -20 15 0 12 37 -2 43 -10
3 -8 10 5 23 16 17 17 17 17 1 0 -9 -1 -19 -2 -22 -6 -9 77 -85 93 -85 10 0
20 11 23 26 6 21 9 24 21 14 8 -7 15 -19 15 -26 0 -17 12 -18 27 -3 8 8 13 8
17 0 4 -6 3 -11 -3 -11 -20 0 -23 -41 -5 -55 10 -7 19 -24 19 -37 0 -19 5 -22
25 -20 14 1 30 9 36 17 18 24 41 17 47 -12 4 -16 11 -35 17 -43 8 -13 11 -13
19 -1 8 12 12 12 25 -2 9 -8 16 -24 16 -35 0 -15 9 -21 40 -26 22 -3 40 -11
40 -16 0 -6 -4 -10 -10 -10 -5 0 -10 -18 -10 -40 0 -29 4 -40 15 -40 10 0 17
14 21 40 4 22 10 40 15 40 5 0 9 -18 9 -40 0 -22 4 -40 9 -40 5 0 12 -12 16
-27 5 -22 8 -24 16 -12 9 12 12 11 22 -5 29 -48 56 -66 97 -66 36 0 40 -2 40
-25 0 -18 5 -25 20 -25 11 0 20 -4 20 -9 0 -5 -9 -13 -20 -16 -11 -3 -20 -13
-20 -21 0 -11 9 -13 40 -8 31 5 40 3 40 -8 0 -8 17 -21 40 -28 32 -11 40 -18
40 -38 0 -16 7 -26 20 -29 19 -5 20 -7 5 -23 -15 -17 -14 -19 19 -31 20 -7 36
-17 36 -21 0 -4 8 -8 18 -8 14 0 15 -2 2 -10 -9 -6 -17 -5 -22 3 -4 6 -10 9
-13 5 -12 -12 19 -46 50 -55 17 -6 55 -7 84 -3 49 6 69 1 54 -14 -3 -3 -19 -6
-35 -6 -28 0 -29 -2 -32 -59 -1 -13 -7 -26 -14 -29 -10 -3 -13 4 -11 24 4 48
0 64 -16 64 -11 0 -15 -11 -15 -39 0 -25 5 -41 15 -45 8 -3 15 -12 15 -20 0
-8 14 -17 33 -21 17 -4 37 -11 42 -15 6 -5 13 -9 18 -9 14 -1 32 -16 43 -36
15 -27 38 -25 42 3 2 14 10 22 22 22 21 0 17 -32 -6 -51 -20 -17 -17 -29 7
-29 12 0 27 -7 33 -16 11 -14 13 -14 25 0 11 14 11 16 -3 16 -9 0 -16 7 -16
16 0 11 5 14 16 10 9 -3 27 -6 40 -6 13 0 24 -4 24 -10 0 -5 -7 -10 -16 -10
-14 0 -14 -2 -3 -16 8 -10 15 -12 17 -5 2 6 8 8 14 5 5 -4 -2 -19 -18 -35
l-28 -29 46 0 c36 0 52 -6 81 -31 43 -37 47 -65 12 -81 -14 -6 -25 -19 -25
-30 0 -10 -7 -18 -17 -18 -14 0 -15 -2 -4 -12 11 -10 14 -10 18 0 3 6 16 12
29 12 21 0 24 -4 24 -40 0 -36 6 -47 55 -95 30 -29 55 -60 55 -69 0 -12 10
-16 40 -16 28 0 40 4 40 14 0 17 35 31 51 21 6 -4 8 -18 5 -31 -6 -21 -3 -24
19 -24 15 0 25 -6 25 -15 0 -8 14 -28 30 -43 23 -22 30 -38 30 -66 0 -32 3
-36 25 -36 16 0 25 -6 25 -15 0 -9 7 -18 15 -21 8 -4 15 -18 15 -34 0 -31 54
-94 74 -87 8 3 11 -5 8 -24 -4 -28 -3 -29 37 -29 30 0 41 -4 41 -15 0 -9 -9
-15 -25 -15 -22 0 -25 -4 -25 -40 0 -29 4 -40 15 -40 8 0 15 -9 15 -20 0 -12
10 -24 24 -30 38 -14 41 -30 7 -30 -29 0 -31 -2 -31 -38 0 -37 1 -38 50 -51
55 -14 57 -25 8 -36 l-33 -7 40 -13 c22 -8 32 -14 23 -14 -11 -1 -18 -9 -18
-21 0 -26 -41 -46 -114 -55 -56 -7 -58 -8 -35 -21 14 -7 59 -15 100 -18 40 -2
75 -5 77 -5 1 -1 2 -10 2 -21 0 -14 7 -20 24 -20 13 0 26 -7 30 -15 3 -8 10
-15 16 -15 6 0 10 47 10 130 0 121 -1 131 -22 153 l-23 22 23 3 22 3 0 1380 0
1379 -1500 0 -1500 0 0 -40z m250 -105 c0 -8 -7 -15 -15 -15 -8 0 -15 7 -15
15 0 8 7 15 15 15 8 0 15 -7 15 -15z m1237 -867 c-3 -8 -6 -5 -6 6 -1 11 2 17
5 13 3 -3 4 -12 1 -19z m43 -88 c0 -5 -4 -10 -10 -10 -5 0 -10 5 -10 10 0 6 5
10 10 10 6 0 10 -4 10 -10z m146 -51 c10 -17 -13 -36 -27 -22 -12 12 -4 33 11
33 5 0 12 -5 16 -11z m218 -354 c3 -8 1 -15 -4 -15 -6 0 -10 7 -10 15 0 8 2
15 4 15 2 0 6 -7 10 -15z m153 -87 c-3 -8 -6 -5 -6 6 -1 11 2 17 5 13 3 -3 4
-12 1 -19z m153 -158 c0 -5 -5 -10 -11 -10 -5 0 -7 5 -4 10 3 6 8 10 11 10 2
0 4 -4 4 -10z m130 -162 c0 -4 17 -8 37 -8 27 0 34 -3 26 -11 -6 -6 -24 -11
-39 -11 -16 0 -30 5 -32 11 -2 6 -15 11 -28 11 -28 0 -31 12 -7 35 16 16 17
16 30 -1 7 -10 13 -21 13 -26z m587 -734 c-3 -3 -12 -4 -19 -1 -8 3 -5 6 6 6
11 1 17 -2 13 -5z m18 -274 c3 -5 1 -10 -4 -10 -6 0 -11 5 -11 10 0 6 2 10 4
10 3 0 8 -4 11 -10z"/>
<path d="M2981 15878 c1 -37 2 -39 9 -18 12 36 12 60 0 60 -5 0 -10 -19 -9
-42z"/>
<path d="M2910 15855 c0 -8 5 -15 10 -15 6 0 10 7 10 15 0 8 -4 15 -10 15 -5
0 -10 -7 -10 -15z"/>
<path d="M2785 15750 c3 -5 8 -10 11 -10 2 0 4 5 4 10 0 6 -5 10 -11 10 -5 0
-7 -4 -4 -10z"/>
<path d="M13360 15696 c0 -9 5 -16 10 -16 6 0 10 4 10 9 0 6 -4 13 -10 16 -5
3 -10 -1 -10 -9z"/>
<path d="M2510 15610 c-11 -7 -3 -10 28 -10 26 0 41 4 37 10 -8 13 -45 13 -65
0z"/>
<path d="M13650 15436 c0 -2 7 -9 15 -16 12 -10 15 -10 15 4 0 9 -7 16 -15 16
-8 0 -15 -2 -15 -4z"/>
<path d="M2110 15269 c0 -5 5 -7 10 -4 6 3 10 8 10 11 0 2 -4 4 -10 4 -5 0
-10 -5 -10 -11z"/>
<path d="M2000 15160 c0 -5 5 -10 10 -10 6 0 10 5 10 10 0 6 -4 10 -10 10 -5
0 -10 -4 -10 -10z"/>
<path d="M1992 15086 c1 -10 8 -17 13 -17 15 1 12 24 -3 29 -9 3 -13 -2 -10
-12z"/>
<path d="M1601 14814 c0 -11 3 -14 6 -6 3 7 2 16 -1 19 -3 4 -6 -2 -5 -13z"/>
<path d="M8615 14599 c-38 -4 -88 -12 -110 -18 -65 -16 -126 -32 -197 -52 -36
-11 -75 -19 -86 -19 -12 0 -24 -5 -27 -10 -4 -6 -15 -8 -25 -5 -25 8 -91 -5
-84 -16 3 -5 -30 -9 -73 -10 -43 0 -72 -3 -65 -6 25 -10 1 -21 -39 -17 -23 2
-46 1 -53 -3 -6 -4 -76 -8 -156 -9 -204 -3 -262 -7 -287 -22 -12 -6 -33 -12
-47 -12 -14 0 -35 -9 -47 -21 -12 -12 -49 -26 -92 -35 -205 -43 -268 -53 -330
-57 -37 -2 -73 -9 -79 -15 -7 -7 -27 -12 -44 -12 -18 0 -35 -4 -38 -9 -8 -13
-100 -41 -134 -41 -36 0 -99 -25 -104 -42 -3 -8 -31 -12 -86 -13 -75 0 -81 -2
-76 -18 5 -16 3 -18 -18 -10 -53 19 -182 -4 -172 -32 5 -13 -46 -32 -73 -26
-28 5 -11 -17 20 -26 28 -8 24 -10 -37 -11 -46 -1 -81 -8 -106 -21 -21 -11
-54 -23 -74 -26 -38 -8 -46 -19 -21 -29 8 -3 14 -11 13 -17 -2 -6 15 -22 37
-35 72 -43 71 -42 59 -54 -8 -8 -22 -9 -47 -2 -39 11 -88 5 -99 -12 -16 -23
-7 -36 24 -36 45 0 25 -14 -24 -17 -25 -2 -50 -11 -63 -23 -12 -12 -40 -23
-61 -26 -54 -8 -124 -37 -124 -51 0 -6 -3 -13 -7 -15 -10 -4 -53 -92 -53 -108
0 -9 4 -9 13 -3 20 16 61 23 77 13 13 -8 13 -10 -2 -10 -9 0 -23 -9 -30 -19
-8 -11 -22 -19 -32 -18 -11 1 -21 -4 -23 -11 -3 -7 1 -10 10 -6 20 7 32 -13
17 -31 -9 -11 -17 -12 -31 -4 -11 5 -17 14 -14 20 4 5 -1 9 -10 9 -20 0 -31
-28 -16 -43 21 -21 11 -32 -49 -60 -33 -16 -64 -36 -69 -46 -15 -27 2 -85 24
-89 11 -2 27 -13 36 -24 14 -18 18 -19 37 -7 19 12 24 11 45 -9 13 -12 27 -22
31 -22 14 0 76 -55 76 -67 0 -23 -34 -14 -58 15 l-23 27 4 -27 c6 -39 -7 -35
-23 7 -15 39 -46 72 -57 61 -4 -4 0 -21 10 -37 9 -16 25 -42 35 -59 21 -37 8
-64 -34 -67 -73 -4 -193 -46 -284 -100 -51 -30 -163 -140 -155 -152 2 -5 -2
-35 -11 -67 -20 -74 -27 -174 -14 -174 6 0 3 -11 -6 -25 -16 -24 -11 -51 7
-40 5 4 9 1 9 -4 0 -6 -4 -11 -10 -11 -5 0 -10 -18 -10 -39 0 -28 -6 -44 -19
-53 -10 -7 -22 -29 -26 -48 -4 -19 -18 -77 -32 -128 -25 -89 -25 -93 -8 -112
21 -23 53 -26 69 -6 6 7 26 16 44 20 30 5 32 4 22 -14 -6 -11 -31 -39 -55 -61
-48 -44 -91 -106 -81 -116 3 -3 12 0 21 7 27 23 29 1 2 -28 -31 -33 -44 -77
-28 -96 8 -10 9 -21 3 -33 -14 -26 -42 -93 -42 -98 0 -3 7 -5 15 -5 8 0 15 7
15 15 0 8 7 15 16 15 12 0 15 -6 10 -25 -5 -18 -2 -25 9 -25 11 0 15 -11 15
-41 0 -36 2 -40 15 -29 8 7 15 21 15 31 0 10 4 21 10 24 6 3 10 15 10 26 0 10
7 19 15 19 9 0 15 -10 15 -26 0 -19 4 -25 15 -20 8 3 15 1 15 -5 0 -6 6 -9 14
-6 20 8 27 -18 20 -74 -6 -44 -5 -49 11 -43 14 6 16 3 10 -17 -4 -13 -11 -28
-15 -33 -5 -4 -2 -26 5 -47 11 -29 11 -46 3 -69 -13 -38 -4 -49 21 -26 21 19
32 10 26 -23 -2 -13 4 -30 15 -41 11 -11 20 -30 20 -42 0 -23 17 -81 32 -111
5 -10 6 -22 3 -27 -8 -12 15 -110 26 -110 5 0 9 12 9 28 0 15 5 34 10 42 7 12
10 8 10 -15 0 -38 26 -136 38 -144 4 -3 18 -40 31 -81 12 -41 31 -91 41 -110
31 -57 76 -150 106 -220 16 -36 37 -76 46 -89 10 -13 18 -30 18 -38 0 -20 41
-93 52 -93 4 0 8 -8 8 -17 0 -10 15 -49 34 -88 19 -38 42 -89 52 -112 18 -43
28 -51 38 -34 3 5 26 18 51 30 53 25 118 27 195 6 30 -9 84 -15 120 -13 36 1
79 -2 95 -6 39 -9 59 -39 45 -66 -10 -18 -18 -20 -63 -15 -29 3 -61 9 -72 12
-35 10 -256 6 -268 -6 -6 -6 -19 -11 -29 -11 -10 0 -21 -7 -24 -15 -4 -8 -10
-12 -15 -9 -5 3 -12 -2 -15 -10 -3 -8 -14 -18 -25 -21 -11 -4 -28 -25 -39 -48
-21 -42 -27 -74 -10 -47 5 8 10 11 10 7 0 -5 -9 -20 -20 -34 -11 -14 -20 -35
-19 -47 0 -21 1 -21 9 -1 14 34 10 -6 -5 -50 -10 -28 -11 -41 -3 -46 7 -4 8
-22 4 -47 -3 -24 -2 -43 4 -47 5 -3 10 -15 10 -26 0 -10 5 -19 10 -19 6 0 10
-17 10 -37 l-1 -38 -14 30 c-12 27 -13 28 -14 7 -1 -29 50 -137 84 -177 25
-30 25 -30 20 -5 -5 22 -2 26 17 26 13 0 26 -4 30 -10 3 -5 21 -14 40 -20 26
-9 39 -23 61 -65 27 -55 66 -105 75 -97 2 3 -3 39 -13 80 -24 109 -12 121 53
54 28 -29 58 -63 67 -74 8 -12 28 -27 45 -32 l30 -11 0 42 c0 44 4 54 32 76
16 12 22 9 56 -26 22 -23 53 -43 71 -46 17 -4 44 -16 59 -27 39 -29 137 -54
161 -41 32 18 34 -25 3 -60 -29 -31 -54 -37 -113 -25 -39 8 -61 -6 -40 -27 6
-6 11 -24 11 -40 0 -16 4 -26 10 -22 6 3 10 -3 10 -15 0 -12 -4 -18 -10 -15
-15 9 -12 -21 3 -34 11 -8 28 -4 72 19 57 29 60 30 92 15 28 -13 33 -21 33
-50 0 -36 -32 -70 -77 -81 -12 -4 -23 -10 -23 -14 0 -5 -17 -14 -37 -21 -21
-6 -42 -15 -48 -19 -5 -5 -28 -11 -50 -15 -91 -16 -121 -35 -94 -62 18 -18 -5
-23 -36 -7 -26 14 -34 12 -153 -41 -256 -114 -369 -262 -401 -525 -17 -140
-43 -270 -54 -270 -6 0 -7 -23 -3 -57 4 -32 11 -89 16 -128 5 -38 20 -101 33
-140 42 -121 51 -181 50 -350 0 -88 -1 -279 -2 -425 -1 -146 -5 -272 -11 -280
-7 -12 -13 -11 -34 10 -21 19 -26 33 -27 74 0 28 -4 74 -9 101 l-7 50 -2 -71
c0 -39 -4 -92 -7 -117 -6 -44 -5 -47 22 -57 16 -5 41 -17 56 -25 15 -9 46 -19
70 -24 178 -37 213 -45 216 -53 2 -4 13 -8 23 -8 12 0 17 -4 13 -11 -4 -8 -1
-8 13 -1 23 13 61 6 85 -15 10 -9 25 -12 37 -8 25 8 133 -11 186 -32 22 -9 63
-17 90 -18 28 -1 66 -7 85 -13 74 -22 129 -34 230 -49 58 -8 106 -19 108 -24
2 -4 9 -6 15 -3 7 2 47 -2 89 -9 43 -7 82 -11 87 -8 5 3 9 58 10 121 1 109 24
222 61 305 5 11 11 29 12 40 3 17 7 14 23 -15 10 -19 24 -55 31 -80 16 -58 44
-134 51 -140 3 -3 3 23 -1 58 -5 59 -5 63 13 57 15 -5 21 0 26 24 3 17 17 53
31 81 24 50 32 114 15 124 -5 3 -11 15 -14 26 -5 20 -5 20 21 -1 15 -11 52
-44 82 -73 121 -116 319 -248 490 -328 199 -93 330 -121 560 -121 152 1 157 1
265 38 223 76 388 173 553 326 90 83 182 153 182 138 0 -6 -14 -25 -30 -41
-17 -16 -28 -33 -25 -38 4 -6 -1 -10 -9 -10 -9 0 -16 -9 -16 -20 0 -11 -7 -20
-15 -20 -14 0 -19 -12 -16 -32 0 -5 -3 -8 -8 -8 -5 0 -13 -9 -16 -20 -4 -11
-17 -31 -30 -44 -16 -16 -22 -31 -18 -47 3 -17 2 -20 -5 -11 -7 11 -11 8 -17
-10 -7 -22 -7 -22 -15 7 -4 17 -9 26 -10 20 -6 -31 -6 -55 1 -55 4 0 11 -10
15 -22 4 -15 1 -25 -12 -35 -10 -7 -12 -13 -5 -13 6 0 39 18 72 40 75 50 92
52 76 9 -10 -26 -9 -32 6 -40 9 -6 17 -18 17 -28 0 -30 24 -43 38 -21 7 11 18
17 26 14 18 -7 26 0 119 91 55 54 79 71 104 73 17 1 35 -3 39 -10 4 -7 7 -64
6 -126 -3 -147 6 -180 65 -231 36 -32 54 -41 83 -41 l37 0 18 88 c18 86 34
134 35 102 0 -8 40 -95 89 -195 50 -99 94 -192 100 -207 7 -19 18 -28 33 -28
13 0 73 -4 133 -9 394 -34 509 -40 520 -31 7 5 42 19 78 30 65 20 70 20 164 5
54 -9 118 -20 143 -25 59 -12 250 -41 428 -65 l52 -8 0 50 c0 28 -11 95 -25
149 -21 81 -26 132 -31 279 -6 190 -16 266 -40 286 -23 19 -41 71 -55 156 -6
43 -18 93 -26 110 -75 174 -111 435 -79 589 17 84 16 94 -20 154 -22 37 -16
191 9 218 17 18 17 21 3 29 -14 8 -15 27 -6 172 5 90 7 167 5 171 -2 4 0 32 5
61 6 30 17 112 25 183 8 71 20 135 26 142 6 8 21 14 33 15 21 0 21 0 -1 11
-13 6 -23 18 -23 27 0 19 72 230 86 252 5 8 11 47 15 87 5 60 10 76 28 88 30
22 25 59 -9 59 -17 0 -26 -7 -30 -25 -7 -29 -24 -29 -73 0 -18 11 -62 26 -97
34 -36 8 -94 22 -130 30 -36 8 -121 26 -190 40 -69 14 -186 40 -260 56 -264
60 -300 67 -306 59 -7 -11 -54 -12 -54 -1 0 5 -8 17 -17 28 -14 15 -18 37 -18
109 0 50 -4 129 -8 177 l-9 86 -29 -8 c-26 -8 -32 -5 -56 28 -16 20 -32 40
-38 44 -6 3 -24 20 -41 36 -20 19 -57 37 -105 51 -41 12 -82 26 -91 31 -10 6
-25 10 -33 10 -21 0 -66 30 -60 40 3 4 -2 11 -11 14 -10 4 -13 2 -8 -7 5 -8 2
-7 -9 2 -27 22 -20 44 29 91 54 53 104 146 104 194 0 67 -58 50 -105 -30 -14
-24 -37 -56 -52 -71 -25 -27 -26 -27 -20 -5 3 14 0 31 -9 40 -87 103 -79 98
-116 85 -47 -17 -115 -22 -186 -14 -43 5 -65 4 -74 -5 -7 -6 -38 -20 -68 -29
-30 -10 -62 -23 -70 -30 -22 -17 -86 -45 -104 -45 -9 0 -16 -4 -16 -9 0 -5 -8
-11 -17 -15 -37 -12 -108 -36 -110 -36 -2 0 -3 14 -3 30 0 17 5 30 10 30 6 0
10 13 10 29 0 17 11 42 25 59 14 17 25 35 25 41 0 6 14 38 30 71 17 33 30 70
30 83 0 12 9 40 20 62 11 22 20 57 20 80 0 59 -27 214 -40 230 -8 10 -8 19 0
34 23 43 45 197 32 230 -10 29 6 158 25 198 8 17 23 34 32 37 9 4 27 13 41 21
17 9 27 11 31 3 4 -7 8 -6 11 3 2 7 19 -5 40 -32 113 -137 182 -231 253 -344
44 -69 99 -156 122 -193 24 -37 46 -74 49 -82 40 -96 93 -160 132 -160 15 0
15 2 2 10 -12 8 -11 10 8 10 12 0 22 4 22 9 0 4 15 11 33 14 52 9 109 37 114
56 3 13 27 25 81 40 42 12 83 22 90 23 6 1 12 5 12 10 0 4 27 21 60 38 82 41
126 83 161 151 46 92 60 200 66 499 5 232 7 269 23 295 10 17 17 41 15 55 -19
128 -30 183 -41 198 -11 15 -34 17 -218 17 l-205 0 -46 45 c-25 25 -64 68 -86
96 -38 49 -41 51 -77 45 -20 -4 -103 -6 -184 -5 -132 2 -149 0 -164 -17 -9
-10 -21 -16 -25 -13 -5 3 -9 0 -9 -5 0 -6 -5 -11 -12 -11 -6 0 -19 -7 -29 -16
-9 -8 -23 -16 -31 -18 -24 -3 -107 -61 -113 -78 -3 -9 -20 -22 -38 -27 -18 -6
-47 -26 -65 -45 -36 -37 -98 -55 -212 -60 -50 -2 -73 2 -98 17 -22 13 -43 17
-61 14 -16 -3 -44 -2 -62 3 -59 16 -177 18 -217 5 -54 -19 -168 -29 -176 -16
-4 6 -14 3 -27 -10 -19 -19 -22 -19 -38 -5 -11 10 -21 12 -31 6 -8 -5 -25 -10
-37 -10 -12 0 -26 -6 -30 -13 -9 -14 -147 -77 -169 -77 -8 0 -22 -4 -32 -10
-23 -13 -109 -40 -127 -40 -31 0 -174 -113 -175 -137 0 -7 -15 -19 -33 -27
-19 -7 -43 -25 -54 -40 -12 -14 -28 -26 -36 -26 -8 0 -17 -7 -21 -15 -3 -8
-14 -15 -24 -15 -10 0 -23 -5 -30 -12 -7 -7 -12 -9 -12 -6 0 3 -21 -13 -46
-37 -31 -28 -44 -47 -39 -55 5 -9 4 -11 -4 -6 -6 4 -40 -6 -76 -23 -36 -17
-70 -31 -75 -31 -6 0 -10 -4 -10 -10 0 -5 -11 -10 -24 -10 -13 0 -26 -6 -29
-12 -3 -9 -10 -7 -21 7 -13 16 -17 17 -25 6 -5 -7 -14 -10 -20 -6 -7 4 -17 3
-24 -3 -7 -5 -23 -5 -37 -1 -14 4 -19 7 -12 8 15 1 17 81 2 81 -11 0 -13 39
-4 64 7 17 34 22 34 6 0 -5 7 -10 16 -10 11 0 14 5 10 16 -3 9 -6 31 -6 50 0
19 -4 34 -10 34 -5 0 -10 -7 -10 -15 0 -61 -56 73 -62 147 -1 21 3 43 10 50
26 26 0 74 -34 61 -13 -4 -34 61 -34 105 0 34 -18 82 -32 82 -4 0 -8 7 -8 15
0 8 -7 15 -16 15 -8 0 -20 13 -25 29 -6 18 -20 32 -35 35 -18 5 -24 13 -24 34
0 15 5 33 12 40 9 9 8 16 -5 29 -10 12 -13 24 -8 32 5 7 6 22 4 32 -8 28 13
46 72 64 50 14 69 28 70 48 0 8 29 20 150 62 78 28 80 28 88 26 5 -1 21 8 37
19 15 11 35 20 43 20 8 0 22 11 31 25 11 17 26 25 44 25 18 0 30 7 37 22 11
23 42 45 117 78 27 13 63 42 87 69 22 27 55 55 74 64 19 9 51 32 71 51 22 20
57 39 84 46 25 6 70 22 101 34 31 13 108 34 171 46 63 12 123 29 132 37 10 9
29 16 43 16 14 0 25 3 25 7 0 8 83 40 115 45 77 10 123 19 140 28 43 22 135
35 166 24 24 -10 32 -9 39 3 5 8 12 11 16 7 4 -4 12 -3 19 3 13 11 75 20 152
21 41 1 53 5 49 15 -5 13 13 19 54 16 8 0 43 6 76 14 52 12 68 12 100 0 22 -7
44 -11 51 -9 19 7 72 -25 125 -75 46 -43 49 -44 63 -26 14 19 15 19 21 -2 3
-13 19 -24 44 -31 36 -9 38 -8 30 7 -5 10 -22 20 -38 23 -29 6 -53 38 -33 45
6 2 11 12 11 22 0 11 6 23 13 27 6 4 19 22 27 38 8 17 34 55 56 85 45 60 56
86 58 140 1 19 10 50 19 69 11 23 14 37 7 41 -12 8 15 80 30 80 6 0 10 11 10
25 0 14 5 25 11 25 12 0 6 -68 -13 -133 -10 -34 -6 -58 8 -45 25 25 34 324 12
423 -54 254 -113 391 -197 459 -7 6 -36 31 -65 56 -28 25 -68 53 -90 63 -33
15 -37 21 -33 43 3 18 -1 27 -12 32 -9 3 -48 38 -87 76 -141 140 -389 230
-664 239 -58 2 -136 0 -175 -4z m1015 -429 c8 -5 11 -12 7 -16 -4 -4 -15 0
-24 9 -18 18 -8 23 17 7z m115 -200 c3 -5 1 -10 -4 -10 -6 0 -11 5 -11 10 0 6
2 10 4 10 3 0 8 -4 11 -10z m55 -170 c12 -23 12 -24 -3 -11 -10 7 -17 20 -17
29 0 18 3 16 20 -18z m-3870 -30 c0 -5 -9 -10 -20 -10 -11 0 -20 5 -20 10 0 6
9 10 20 10 11 0 20 -4 20 -10z m3887 -322 c-3 -7 -5 -2 -5 12 0 14 2 19 5 13
2 -7 2 -19 0 -25z m83 -12 c0 -3 -4 -8 -10 -11 -5 -3 -10 -1 -10 4 0 6 5 11
10 11 6 0 10 -2 10 -4z m-70 -285 c-6 -11 -20 -26 -33 -32 -18 -10 -20 -10
-11 2 5 8 19 27 29 44 20 32 33 20 15 -14z m-10 -69 c0 -19 -45 -72 -60 -72
-20 0 -9 30 23 59 38 36 37 36 37 13z m-4770 -294 c0 -19 -18 -43 -25 -36 -4
3 -2 16 5 27 12 24 20 27 20 9z m147 -114 c-3 -3 -12 -4 -19 -1 -8 3 -5 6 6 6
11 1 17 -2 13 -5z m23 -97 c0 -12 -11 -19 -79 -51 -37 -18 -47 -15 -38 9 14
36 117 74 117 42z m-105 -347 c12 -19 -43 -79 -82 -89 -50 -14 -57 -6 -31 38
28 48 96 79 113 51z m65 -398 c0 -10 -22 -32 -32 -32 -5 0 -3 9 4 20 13 20 28
27 28 12z m-24 -97 c-3 -8 -1 -15 5 -15 6 0 6 -7 -1 -20 -6 -11 -19 -20 -29
-20 -15 0 -19 -7 -17 -30 0 -16 -3 -31 -9 -32 -5 -2 -11 18 -13 45 -2 31 1 47
9 47 6 0 9 6 6 14 -6 16 6 24 37 25 12 1 16 -4 12 -14z m5256 -121 c5 -4 -15
-19 -46 -35 -68 -35 -81 -36 -66 -9 6 11 15 18 21 15 5 -4 9 -1 9 4 0 6 -4 11
-8 11 -5 0 -9 7 -9 16 0 13 8 15 44 10 25 -3 49 -9 55 -12z m286 -11 c-4 -33
-37 -43 -57 -19 -20 24 -6 46 29 46 28 0 31 -3 28 -27z m-96 -311 c23 -118 12
-484 -17 -580 -27 -90 -107 -162 -179 -162 -19 0 -38 -4 -41 -10 -3 -5 -16
-10 -28 -10 -16 0 -18 3 -9 12 14 14 16 32 2 23 -12 -7 -2 54 12 71 9 12 3 33
-37 119 -37 82 -85 277 -85 347 0 29 5 40 24 50 13 7 93 61 177 120 119 82
156 103 162 92 4 -8 13 -40 19 -72z m-2756 -274 c10 -15 -41 -58 -69 -58 -67
1 -87 32 -37 57 31 16 96 17 106 1z m-786 -1088 c0 -5 -4 -10 -10 -10 -5 0
-10 -6 -10 -14 0 -19 140 -32 169 -16 15 8 27 8 41 0 23 -12 25 -21 8 -38 -9
-9 -8 -12 5 -12 9 0 17 -5 17 -12 0 -6 6 -19 14 -27 15 -17 11 -121 -5 -121
-5 0 -9 7 -9 15 0 11 -11 15 -40 15 -29 0 -40 -4 -40 -15 0 -11 -11 -15 -40
-15 l-40 0 0 -40 0 -40 40 0 c22 0 40 -5 40 -10 0 -6 -21 -11 -47 -10 -27 0
-60 -1 -75 -4 -27 -4 -38 7 -18 19 17 10 12 85 -5 85 -8 0 -15 -9 -15 -20 0
-26 -15 -25 -34 1 -9 13 -19 18 -28 13 -7 -4 -10 -4 -6 0 3 4 -2 28 -13 53
-21 48 -25 93 -9 93 6 0 10 5 10 10 0 6 -7 10 -15 10 -12 0 -14 7 -9 28 8 34
23 62 24 44 0 -9 5 -10 19 -2 11 5 29 10 40 10 12 0 21 5 21 10 0 6 5 10 10
10 6 0 10 -4 10 -10z m-475 -190 c42 -46 99 -380 65 -380 -5 0 -10 -9 -10 -20
0 -11 -4 -20 -9 -20 -5 0 -13 -9 -16 -20 -6 -18 -11 -16 -49 24 -23 25 -54 48
-68 51 -33 8 -71 -3 -62 -17 5 -7 2 -9 -7 -5 -90 37 -98 60 -62 170 30 95 55
127 95 127 31 0 52 26 63 78 8 37 32 43 60 12z m-587 -198 c2 -19 -4 -50 -14
-70 -9 -19 -17 -53 -18 -74 -1 -39 -16 -55 -16 -16 0 12 -6 29 -14 37 -8 9
-20 44 -27 79 -15 73 -8 84 51 80 32 -3 35 -6 38 -36z m3037 -9 c-4 -12 1 -14
20 -11 16 4 25 1 25 -8 0 -7 3 -20 7 -29 5 -14 2 -16 -17 -10 -13 4 -32 17
-42 29 -22 27 -24 58 -2 49 8 -3 13 -12 9 -20z m-3220 -202 c3 -5 1 -12 -5
-16 -5 -3 -10 1 -10 9 0 18 6 21 15 7z m-10 -41 c3 -5 1 -10 -4 -10 -6 0 -11
5 -11 10 0 6 2 10 4 10 3 0 8 -4 11 -10z m4293 -104 c39 -20 60 -47 63 -81 4
-53 0 -65 -21 -65 -11 0 -38 -11 -59 -25 -27 -18 -60 -28 -112 -34 -41 -5 -86
-14 -100 -19 -15 -6 -30 -8 -33 -5 -3 4 -24 0 -47 -7 -25 -9 -43 -10 -47 -4
-12 17 -124 35 -139 23 -10 -9 -13 -6 -13 15 0 21 -5 26 -25 26 -16 0 -25 6
-25 15 0 8 6 15 14 15 8 0 16 4 18 9 2 5 37 18 78 29 81 21 122 35 186 64 22
10 51 18 65 18 13 0 33 6 44 14 40 28 112 33 153 12z m321 -28 c-1 -42 -14
-103 -21 -93 -8 14 3 115 13 115 5 0 9 -10 8 -22z m-139 -248 c5 0 12 -17 16
-37 4 -21 13 -43 20 -51 7 -7 11 -19 7 -27 -3 -9 0 -22 7 -30 9 -11 9 -22 1
-46 -6 -18 -11 -43 -11 -55 0 -13 -4 -24 -10 -24 -5 0 -10 -7 -10 -15 0 -17
-35 -21 -45 -5 -3 6 -17 10 -31 10 -14 0 -23 4 -19 9 3 5 -5 18 -18 28 -13 10
-26 27 -29 39 -4 17 -2 20 18 16 30 -5 30 7 3 42 -16 21 -18 30 -9 41 6 7 11
22 10 32 -4 32 0 43 13 43 8 0 22 18 32 41 l19 40 13 -25 c8 -14 18 -26 23
-26z m120 -80 c0 -5 -9 -10 -20 -10 -11 0 -20 5 -20 10 0 6 9 10 20 10 11 0
20 -4 20 -10z m-900 -2150 c0 -5 -5 -10 -11 -10 -5 0 -7 5 -4 10 3 6 8 10 11
10 2 0 4 -4 4 -10z"/>
<path d="M5058 12193 c7 -3 16 -2 19 1 4 3 -2 6 -13 5 -11 0 -14 -3 -6 -6z"/>
<path d="M1300 14469 c0 -5 5 -7 10 -4 6 3 10 8 10 11 0 2 -4 4 -10 4 -5 0
-10 -5 -10 -11z"/>
<path d="M1490 14476 c0 -2 7 -9 15 -16 12 -10 15 -10 15 4 0 9 -7 16 -15 16
-8 0 -15 -2 -15 -4z"/>
<path d="M15040 14255 c0 -8 7 -15 16 -15 14 0 14 3 4 15 -7 8 -14 15 -16 15
-2 0 -4 -7 -4 -15z"/>
<path d="M1060 14153 c0 -5 5 -15 10 -23 9 -13 11 -13 20 0 15 22 12 30 -10
30 -11 0 -20 -3 -20 -7z"/>
<path d="M15740 13430 c0 -5 5 -10 10 -10 6 0 10 5 10 10 0 6 -4 10 -10 10 -5
0 -10 -4 -10 -10z"/>
<path d="M15760 13344 c0 -8 5 -12 10 -9 6 3 10 10 10 16 0 5 -4 9 -10 9 -5 0
-10 -7 -10 -16z"/>
<path d="M9670 12759 c0 -6 18 -29 40 -51 23 -21 39 -38 36 -38 -3 0 22 -37
54 -82 33 -46 76 -118 97 -160 21 -43 42 -78 46 -78 11 0 -2 102 -14 115 -5 5
-9 17 -9 27 0 10 -4 18 -10 18 -5 0 -10 11 -10 23 0 33 -55 105 -85 113 -14 3
-32 19 -41 35 -8 16 -19 29 -24 29 -5 0 -25 14 -45 31 -19 17 -35 25 -35 18z
m220 -220 c0 -6 -4 -7 -10 -4 -5 3 -10 11 -10 16 0 6 5 7 10 4 6 -3 10 -11 10
-16z"/>
<path d="M15893 12648 c-12 -4 -5 -7 19 -7 20 -1 48 -5 62 -11 23 -8 26 -7 26
10 0 18 -6 20 -45 18 -25 -2 -53 -6 -62 -10z"/>
<path d="M4997 11613 c-4 -3 -7 -18 -7 -32 1 -23 2 -24 11 -8 5 9 17 17 24 17
20 0 19 16 -1 24 -19 7 -19 7 -27 -1z"/>
<path d="M5011 11464 c0 -11 3 -14 6 -6 3 7 2 16 -1 19 -3 4 -6 -2 -5 -13z"/>
<path d="M11033 9585 c0 -27 2 -38 4 -22 2 15 2 37 0 50 -2 12 -4 0 -4 -28z"/>
<path d="M11105 9603 c11 -42 13 -56 14 -76 2 -38 26 -8 32 39 6 51 -1 64 -35
64 -15 0 -17 -5 -11 -27z"/>
<path d="M11315 9540 c-3 -5 -1 -18 4 -27 9 -16 10 -14 11 10 0 28 -5 34 -15
17z"/>
<path d="M0 8081 l0 -1229 77 -67 c43 -37 101 -88 128 -114 65 -60 133 -121
224 -201 41 -36 86 -76 100 -88 75 -68 175 -133 156 -102 -3 6 -2 10 4 10 5 0
12 -4 15 -9 4 -5 23 -12 44 -16 79 -13 220 -148 196 -187 -4 -6 -3 -8 4 -5 13
9 92 -80 92 -104 0 -10 13 -25 30 -34 17 -9 30 -20 30 -26 0 -6 5 -7 11 -3 7
4 10 1 7 -6 -2 -7 30 -47 71 -88 107 -105 116 -112 136 -112 11 0 15 -5 11
-15 -8 -21 40 -73 143 -155 117 -94 340 -322 370 -378 17 -32 13 -33 -15 -7
-33 31 -44 32 -36 3 5 -21 4 -22 -11 -9 -15 12 -17 11 -17 -8 0 -11 -8 -29
-17 -39 -35 -37 -51 -60 -46 -66 9 -8 -18 -37 -28 -30 -5 3 -16 -10 -23 -28
-8 -18 -33 -51 -55 -73 -22 -22 -41 -45 -41 -52 0 -7 -9 -17 -20 -23 -15 -8
-20 -8 -20 1 0 8 -7 6 -18 -4 -26 -23 -59 -21 -73 5 -10 19 -12 20 -21 4 -6
-12 -6 -22 3 -32 6 -8 9 -17 5 -21 -3 -4 -13 2 -21 13 -35 47 -3 -55 34 -106
35 -49 133 -150 146 -150 16 0 47 64 55 113 8 47 80 243 109 297 11 21 37 45
63 60 63 35 78 49 78 74 0 17 2 18 10 6 19 -30 12 -57 -17 -65 -71 -17 -128
-79 -147 -159 -4 -15 -16 -47 -26 -70 -54 -118 -67 -187 -45 -238 4 -11 3 -18
-4 -18 -6 0 -11 7 -11 15 0 8 -5 15 -10 15 -15 0 -50 -61 -50 -86 0 -11 -12
-31 -26 -45 -34 -31 -61 -87 -114 -229 -49 -130 -67 -171 -78 -168 -15 4 -162
-36 -162 -44 0 -4 -6 -8 -14 -8 -7 0 -19 -7 -26 -15 -10 -12 -9 -15 4 -15 10
0 14 -4 11 -10 -3 -5 -17 -10 -30 -10 -13 0 -27 -5 -30 -10 -10 -17 -9 -70 2
-81 18 -18 147 -56 233 -68 122 -17 121 -17 118 -57 -1 -19 -7 -34 -12 -34 -6
0 -5 -5 2 -12 7 -7 12 -25 12 -42 0 -29 1 -29 15 -10 17 20 12 6 -31 -92 -17
-41 -20 -126 -6 -164 14 -36 53 -75 100 -99 39 -20 158 -45 172 -36 4 2 34 5
66 6 69 2 166 29 244 69 98 49 208 160 336 337 17 24 34 40 37 36 4 -3 7 1 7
9 0 9 9 22 20 29 11 8 21 27 22 42 2 17 11 33 23 39 51 26 69 90 44 155 -15
40 -65 89 -127 124 -46 27 -51 33 -46 55 6 23 7 71 3 159 -1 17 2 56 6 88 l8
58 81 -5 c45 -3 140 -8 211 -11 148 -7 467 -38 662 -65 148 -20 125 -9 359
-168 176 -119 406 -236 379 -192 -3 6 1 10 9 10 9 0 19 0 24 1 4 0 10 -10 14
-23 5 -19 6 -20 7 -4 1 11 4 16 9 12 4 -4 7 -198 7 -430 l0 -421 58 -117 c31
-63 82 -157 112 -207 30 -50 55 -94 55 -98 0 -11 75 -136 146 -244 35 -54 64
-102 64 -108 0 -6 5 -11 10 -11 6 0 10 -4 10 -8 0 -8 40 -72 175 -278 25 -39
51 -87 57 -106 11 -37 12 -32 -47 -303 -14 -66 -37 -178 -51 -250 -14 -71 -37
-191 -51 -265 -26 -134 -35 -352 -17 -382 11 -17 24 21 17 50 -3 12 -2 22 1
22 4 0 11 -10 16 -22 7 -18 9 -19 9 -5 1 9 8 17 15 17 13 0 14 35 11 232 -3
162 -1 222 6 198 18 -65 26 -145 18 -165 -6 -13 -4 -46 5 -90 15 -75 16 -74
20 22 2 35 8 75 14 90 6 16 13 45 17 65 4 28 11 37 28 40 16 2 23 11 25 31 2
15 -1 27 -5 27 -5 0 -14 -12 -20 -27 l-11 -28 -1 25 c-1 30 8 44 32 53 26 10
32 35 13 56 -19 21 -21 47 -3 49 6 1 23 3 37 4 21 3 24 -1 25 -27 0 -23 5 -31
23 -33 17 -3 22 -10 22 -32 0 -22 6 -29 26 -34 22 -6 25 -11 22 -36 -4 -25 -1
-30 24 -35 21 -5 28 -12 28 -30 0 -14 9 -29 19 -35 11 -5 24 -25 31 -44 6 -19
17 -37 25 -40 8 -3 15 -12 15 -19 0 -8 11 -26 25 -41 14 -15 25 -37 25 -49 0
-18 -2 -19 -11 -7 -8 12 -9 11 -7 -5 3 -14 11 -19 26 -18 17 2 25 -4 33 -25 5
-15 19 -34 30 -42 12 -10 21 -30 22 -52 1 -20 7 -41 11 -45 5 -4 6 0 3 10 -14
39 20 12 58 -45 22 -34 45 -66 51 -73 7 -6 32 -43 57 -81 24 -38 89 -131 143
-206 55 -76 122 -170 149 -209 50 -72 79 -99 102 -99 7 0 13 7 13 15 0 8 5 15
10 15 9 0 14 -14 11 -32 0 -5 6 -8 14 -8 8 0 20 -9 27 -20 12 -19 24 -20 266
-20 l253 0 -20 29 c-12 16 -21 33 -21 38 0 5 -8 18 -18 29 -10 10 -35 46 -56
79 -21 33 -54 79 -72 102 -19 23 -34 44 -34 47 0 7 -134 198 -183 261 -22 27
-55 60 -73 73 -26 17 -33 28 -29 45 5 25 -6 45 -146 269 -101 159 -194 313
-266 439 -23 41 -52 90 -64 109 l-23 35 28 -25 c16 -14 48 -55 72 -91 44 -68
62 -83 89 -73 9 4 15 0 15 -10 0 -9 -4 -16 -10 -16 -18 0 -10 -36 13 -58 13
-12 27 -22 33 -22 5 0 3 4 -3 8 -24 15 -20 77 6 111 l19 24 16 -31 c15 -28 15
-32 1 -32 -8 0 -15 -4 -15 -10 0 -5 9 -10 20 -10 11 0 20 -4 20 -10 0 -5 6
-10 13 -10 6 0 22 -11 35 -24 l22 -24 -40 -4 c-35 -3 -40 -1 -41 17 -1 17 -2
16 -9 -5 -12 -37 -11 -60 1 -60 5 0 8 4 5 9 -4 5 14 9 39 9 25 -1 45 -3 45 -4
0 -2 -11 -14 -25 -28 -34 -34 -31 -46 8 -45 17 0 26 3 20 6 -21 8 -15 43 7 43
14 0 20 7 20 23 1 21 2 21 28 -8 20 -22 36 -30 60 -30 36 1 49 -22 39 -71 -3
-19 -1 -24 9 -20 8 3 21 9 29 12 10 4 15 0 16 -12 1 -15 3 -13 10 6 7 21 8 19
4 -10 -3 -18 -10 -37 -16 -41 -7 -4 -8 -12 -4 -19 4 -7 2 -16 -5 -20 -11 -7
-10 -14 4 -35 10 -15 20 -24 23 -21 3 3 1 12 -5 19 -17 20 29 84 50 71 4 -3 3
-14 -3 -25 -6 -11 -8 -27 -5 -35 6 -17 36 -19 36 -3 0 8 4 8 15 -1 8 -6 20 -8
27 -4 7 4 10 4 6 0 -4 -5 4 -18 18 -31 19 -17 24 -32 24 -68 0 -38 -3 -45 -16
-40 -10 4 -17 -1 -21 -15 -6 -26 -42 -40 -54 -21 -10 17 -23 5 -16 -14 4 -11
16 -12 54 -7 26 4 54 5 62 2 10 -4 12 1 6 18 -5 15 -4 20 4 16 6 -4 11 -15 11
-24 0 -10 11 -29 25 -44 29 -32 33 -60 8 -56 -12 2 -18 -3 -18 -17 0 -15 6
-19 23 -18 18 2 22 -2 21 -25 0 -23 -2 -24 -8 -8 -5 14 -10 16 -15 7 -4 -6 -1
-23 8 -36 9 -13 18 -42 22 -64 3 -22 12 -42 19 -44 8 -4 10 3 7 19 -2 14 0 24
7 24 6 0 11 -4 11 -10 0 -5 11 -20 23 -32 18 -18 24 -35 25 -72 0 -29 6 -52
13 -57 20 -12 22 -4 5 28 -13 27 -13 31 1 46 13 13 14 19 4 31 -7 8 -11 20
-10 28 2 7 -1 24 -5 37 -6 17 -10 20 -16 11 -5 -9 -12 -4 -21 16 -15 31 -47
49 -36 20 4 -9 3 -15 -2 -12 -15 10 -19 80 -4 94 8 8 13 9 13 3 0 -6 5 -11 12
-11 6 0 3 9 -7 20 -19 21 -15 36 8 27 16 -6 38 -75 26 -83 -15 -9 -10 -22 9
-28 10 -4 26 -22 35 -41 9 -19 21 -35 26 -35 14 0 0 40 -31 89 -30 48 -34 61
-17 61 5 0 8 -4 5 -8 -3 -5 10 -26 29 -46 19 -21 36 -45 39 -54 2 -9 8 -28 11
-41 6 -19 4 -23 -9 -18 -22 9 -20 -6 3 -27 10 -9 21 -30 24 -45 5 -23 11 -28
37 -28 25 0 29 3 24 20 -4 13 -2 18 7 15 7 -2 17 -21 21 -42 4 -20 17 -46 28
-58 l20 -22 -15 49 c-8 28 -15 60 -15 71 0 12 -10 29 -22 37 l-23 16 22 0 c12
1 26 8 31 17 7 12 12 5 23 -33 7 -26 13 -51 11 -55 -1 -4 7 -12 18 -18 19 -10
19 -12 5 -27 -10 -9 -13 -23 -9 -37 4 -11 3 -18 -1 -14 -5 5 -14 -1 -21 -11
-7 -10 -27 -21 -44 -25 -17 -3 -37 -12 -45 -20 -12 -12 -12 -15 5 -19 21 -5
26 -32 11 -56 -12 -19 -58 -6 -66 19 -3 11 -11 20 -17 20 -6 0 -7 -7 -3 -17 5
-10 10 -34 13 -53 2 -19 8 -37 11 -40 4 -3 14 -21 24 -40 9 -19 17 -29 17 -22
0 6 6 11 13 10 6 -2 12 3 11 10 -1 6 -2 19 -2 27 -1 9 -12 15 -27 15 -33 0
-33 26 0 33 18 3 30 -2 40 -16 15 -21 65 -33 65 -16 0 6 -4 7 -10 4 -5 -3 -10
1 -10 10 0 9 4 14 9 10 5 -3 12 -1 16 5 10 16 32 12 72 -16 25 -16 39 -21 42
-13 4 13 -19 30 -31 23 -5 -3 -15 10 -23 28 -8 18 -14 27 -15 21 0 -22 -16
-14 -28 12 -22 49 -7 79 16 33 10 -22 11 -21 11 10 1 20 6 32 15 32 7 0 20 10
28 22 17 25 31 19 53 -25 26 -52 35 -106 19 -115 -11 -6 -11 -17 2 -65 8 -32
12 -62 9 -67 -3 -6 -1 -10 4 -10 6 0 11 9 11 20 0 11 5 20 10 20 9 0 14 -14
11 -32 0 -3 72 -7 160 -7 145 -2 161 0 155 15 -3 9 -9 28 -12 42 -4 22 -1 19
18 -13 17 -29 31 -41 51 -43 27 -3 28 -2 22 31 -8 44 1 77 22 77 12 0 14 -7
10 -28 -3 -15 -2 -34 4 -42 7 -12 9 -12 9 3 0 14 5 17 20 12 22 -7 29 19 8 29
-7 4 -3 4 10 2 22 -4 23 -4 8 17 -9 12 -19 29 -22 37 -19 51 -23 54 -19 17 4
-39 -13 -52 -22 -17 -6 24 -23 27 -23 3 0 -15 -1 -15 -18 0 -10 10 -23 17 -28
17 -6 0 -23 14 -40 31 l-29 32 33 -6 c41 -8 49 7 28 56 -16 38 -19 100 -4 91
4 -3 8 -12 8 -21 0 -8 9 -26 20 -40 16 -20 20 -22 20 -8 0 9 -7 31 -16 48 -9
18 -20 38 -24 46 -3 8 -12 17 -20 19 -7 3 -10 0 -6 -7 5 -7 1 -9 -10 -4 -15 5
-16 1 -11 -31 3 -22 2 -34 -4 -31 -5 4 -9 15 -9 26 0 10 -4 27 -9 37 -15 28
-28 141 -18 151 10 10 -15 75 -33 86 -16 10 -11 -32 5 -49 19 -18 19 -26 1
-26 -19 0 -24 9 -32 57 -6 40 -6 41 20 36 14 -3 26 -11 26 -18 0 -6 9 -20 20
-30 11 -10 20 -28 20 -39 0 -12 7 -32 16 -44 19 -27 39 -19 23 9 -15 28 -8 31
20 8 26 -21 22 -49 -6 -49 -14 0 -12 -3 7 -13 14 -7 29 -22 35 -34 8 -18 61
-38 73 -28 10 9 -26 45 -45 45 -13 0 -23 6 -23 14 0 34 86 -12 103 -56 3 -8 6
-6 6 6 1 10 -10 31 -24 48 -36 43 -33 54 18 49 20 -3 21 3 7 30 -13 23 -7 24
15 3 12 -13 19 -14 28 -5 16 16 27 14 27 -6 0 -9 3 -14 6 -10 3 3 3 20 -1 37
-6 29 -9 30 -43 24 -37 -6 -37 -6 -17 12 25 24 88 29 105 9 10 -12 9 -15 -7
-15 -28 0 -32 -8 -19 -35 11 -24 34 -29 28 -6 -3 16 9 13 37 -8 16 -12 22 -24
18 -36 -5 -11 -3 -15 5 -13 23 8 22 49 -1 55 -46 12 -64 122 -23 138 26 10 33
-9 18 -47 l-15 -36 29 -6 c16 -3 36 -3 44 0 7 3 23 -7 35 -22 12 -15 24 -24
28 -20 4 3 1 12 -5 18 -7 7 -12 23 -12 36 0 20 -4 22 -23 16 -12 -4 -25 -11
-28 -16 -4 -7 -9 -6 -13 0 -3 6 2 13 13 17 10 3 22 17 25 30 7 28 -18 59 -59
75 -19 7 -25 17 -25 39 0 20 -7 34 -20 41 -11 6 -20 15 -20 19 0 14 37 1 56
-20 17 -19 54 -26 54 -11 0 4 -6 14 -12 22 -7 8 -4 7 8 -3 15 -12 19 -25 16
-46 -6 -40 13 -71 43 -71 14 0 25 -6 25 -12 1 -9 4 -8 13 2 13 16 52 40 103
64 17 8 36 21 43 29 15 18 51 10 69 -15 12 -16 15 -17 28 -3 9 8 21 12 27 8 8
-5 7 -8 -4 -11 -11 -2 -16 -15 -17 -44 -3 -59 -13 -65 -67 -39 -38 18 -45 25
-40 41 4 11 2 20 -3 20 -14 0 -21 -25 -15 -51 5 -18 3 -21 -10 -16 -22 8 -22
-16 -1 -49 23 -35 11 -40 -21 -10 -32 30 -40 32 -31 10 5 -14 4 -15 -9 -4 -9
7 -18 10 -22 7 -10 -10 19 -38 33 -33 7 3 16 1 19 -4 4 -6 -1 -10 -9 -10 -21
0 -20 -3 10 -51 24 -39 26 -69 4 -69 -5 0 -10 -7 -10 -15 0 -22 -17 -18 -23 5
-4 15 0 20 14 20 27 0 24 22 -7 51 -25 24 -26 24 -40 5 -8 -11 -14 -32 -14
-48 0 -17 -5 -28 -14 -28 -7 0 -16 -13 -20 -30 -3 -16 -10 -30 -16 -30 -21 0
-22 30 -2 58 12 15 23 41 26 58 4 16 3 23 0 17 -8 -18 -24 -16 -40 4 -12 17
-13 16 -14 -4 0 -13 -8 -24 -20 -28 -11 -4 -18 -10 -15 -14 2 -5 -7 -6 -20 -3
-20 3 -24 1 -19 -12 5 -12 0 -16 -16 -16 -17 0 -20 -3 -13 -12 6 -7 13 -25 17
-39 3 -15 17 -34 30 -42 21 -14 26 -14 36 -2 7 8 25 15 41 15 16 0 29 5 29 10
0 6 5 10 10 10 25 0 6 -20 -40 -41 -47 -22 -50 -26 -44 -53 5 -23 3 -28 -9
-23 -9 3 -35 -14 -70 -46 l-54 -52 27 -25 c22 -22 29 -24 39 -12 7 7 11 14 10
15 -32 17 -40 24 -37 32 4 12 38 7 56 -8 7 -5 10 -17 7 -26 -4 -13 -2 -12 9 2
7 9 18 17 25 17 6 0 11 5 11 10 0 6 -5 9 -11 8 -7 -2 -15 9 -19 24 -8 26 -7
26 29 21 33 -6 71 -34 71 -55 0 -16 -19 -8 -34 14 l-16 22 -2 -24 c0 -14 -1
-30 -1 -36 0 -5 -9 -10 -20 -10 -27 1 -46 -29 -28 -46 11 -11 12 -9 6 10 -8
28 10 30 25 2 14 -26 37 -26 45 0 3 11 10 20 15 20 5 0 6 7 3 17 -4 11 -3 14
5 9 7 -4 12 -2 12 3 0 6 7 11 15 11 17 0 9 28 -14 48 -14 12 -14 13 0 9 13 -4
18 4 23 34 4 22 4 44 1 50 -4 5 -2 9 2 9 5 0 16 -16 25 -35 13 -30 14 -36 1
-47 -12 -10 -11 -14 8 -28 13 -11 19 -22 14 -30 -6 -9 -10 -9 -17 1 -6 9 -8 0
-4 -29 5 -33 3 -44 -9 -48 -8 -4 -15 -12 -15 -20 0 -8 -9 -14 -20 -14 -15 0
-20 -7 -20 -25 0 -14 -7 -28 -15 -31 -40 -16 -6 -24 82 -22 l98 3 20 55 c13
37 26 55 38 56 10 1 16 -4 15 -11 -2 -8 1 -14 5 -14 5 0 15 -8 22 -18 13 -17
15 -17 30 4 20 28 39 30 30 4 -9 -30 16 -37 37 -11 20 25 23 15 8 -24 -5 -14
-17 -26 -27 -26 -15 0 -16 -2 -3 -10 8 -5 45 -10 82 -10 64 0 66 1 60 23 -3
12 -9 25 -15 28 -5 4 -5 9 2 13 6 4 14 -7 19 -26 l8 -33 2127 -3 c1722 -2
2127 0 2127 11 0 7 4 48 10 92 5 44 11 111 14 148 7 85 14 98 68 124 85 41
105 45 243 56 145 11 146 13 20 37 -33 7 -70 16 -83 21 -13 5 -36 9 -51 9 -16
0 -34 7 -41 15 -9 11 -17 12 -30 5 -15 -8 -25 -5 -46 15 -30 28 -28 29 51 41
43 6 46 8 25 15 -14 4 -48 7 -76 8 -47 1 -52 3 -56 26 -3 13 -3 27 0 30 3 2
41 2 86 -1 45 -3 95 -1 111 5 19 6 23 10 11 10 -10 1 -25 9 -32 19 -9 13 -32
18 -90 22 l-78 5 -10 33 c-5 18 -6 35 -2 39 9 9 419 9 471 0 40 -7 73 -37 110
-99 l16 -28 -98 0 c-104 0 -155 -14 -92 -24 19 -3 86 -15 150 -25 115 -19 115
-19 213 -87 165 -114 204 -158 197 -216 -1 -9 7 -22 18 -28 11 -6 32 -30 46
-54 14 -24 34 -51 45 -61 19 -18 80 -135 80 -155 0 -6 38 -10 94 -10 90 0 95
1 98 22 2 18 12 24 52 31 27 4 51 6 54 3 2 -3 -3 -17 -12 -31 l-16 -25 45 0
45 0 -6 33 c-3 17 -8 38 -10 46 -4 12 29 73 67 124 14 18 19 19 33 8 17 -14
93 -12 277 5 81 8 158 -2 166 -22 3 -7 -10 -37 -29 -66 -28 -43 -58 -107 -58
-124 0 -2 145 -4 323 -4 l323 0 36 38 c48 50 80 109 121 222 44 120 92 214
120 234 12 8 42 33 66 55 24 23 47 38 50 35 3 -3 0 -9 -7 -13 -7 -4 -12 -12
-11 -17 4 -23 -2 -46 -18 -62 -29 -31 -63 -100 -57 -116 8 -22 21 -24 145 -24
115 0 220 -10 229 -21 19 -24 192 -41 205 -21 3 6 0 10 -8 10 -7 0 -20 11 -27
25 -7 14 -19 25 -26 25 -7 0 -19 6 -26 13 -7 6 -30 21 -51 32 -48 25 -52 60
-7 70 16 4 34 4 39 0 6 -3 40 -3 76 1 l65 7 0 114 0 113 -26 -6 c-18 -5 -29
-1 -39 12 -19 25 -18 31 1 38 9 4 27 -1 40 -9 l24 -15 0 455 0 455 -30 0 c-43
0 -90 26 -90 50 0 11 -9 24 -21 30 -11 6 -19 16 -16 23 5 15 -24 47 -43 47
-21 0 -76 49 -72 65 1 7 -2 16 -8 20 -16 10 -12 -20 10 -83 23 -63 49 -160 56
-207 2 -16 11 -50 19 -75 8 -25 17 -59 20 -76 2 -17 15 -55 28 -85 13 -30 27
-73 31 -96 7 -46 -1 -60 -85 -142 -26 -25 -49 -55 -52 -66 -2 -11 -5 16 -6 60
-1 44 -10 139 -20 211 -11 72 -20 171 -20 220 0 50 -7 116 -16 149 -9 33 -15
80 -14 106 2 25 0 49 -3 55 -7 12 -34 100 -43 138 -5 23 -3 27 9 23 12 -5 16
0 16 22 0 35 25 44 85 31 22 -4 72 -12 110 -15 39 -4 82 -14 97 -21 54 -28 58
-22 58 71 l0 85 -169 -5 c-92 -3 -183 -10 -201 -15 -19 -5 -35 -9 -36 -7 -16
20 -60 130 -74 187 -5 19 -20 77 -34 129 -20 76 -24 116 -23 205 2 106 -17
236 -33 236 -11 0 -21 -30 -14 -41 3 -5 1 -24 -5 -42 -6 -18 -13 -67 -16 -107
-7 -96 -7 -85 1 -160 3 -36 6 -74 5 -85 0 -11 0 -94 0 -185 0 -91 0 -190 0
-220 -1 -120 0 -135 11 -141 8 -5 6 -19 -6 -48 -20 -50 -20 -55 -2 -48 12 5
13 0 6 -21 -5 -15 -11 -54 -13 -87 -4 -60 -10 -85 -28 -117 -12 -24 -12 -28 7
-28 12 0 14 -5 9 -18 -5 -9 -9 -37 -11 -62 -1 -25 -3 -48 -3 -52 -1 -5 -11 -8
-23 -8 -19 0 -20 -2 -8 -10 13 -8 12 -10 -3 -10 -10 0 -21 -9 -25 -20 -8 -23
-77 -61 -97 -54 -7 3 -15 -4 -17 -14 -4 -13 -18 -22 -39 -27 -19 -4 -63 -21
-98 -37 -35 -17 -91 -36 -125 -43 -33 -7 -87 -20 -119 -28 -32 -9 -94 -21
-139 -27 -44 -6 -92 -19 -106 -28 -20 -13 -49 -17 -122 -17 -84 0 -101 3 -146
27 -28 15 -77 36 -109 47 -32 11 -66 28 -77 37 -10 10 -33 18 -51 18 -31 1
-126 44 -157 71 -8 8 -28 16 -45 20 -16 4 -39 9 -50 12 -32 8 42 -42 115 -78
36 -18 60 -34 53 -36 -6 -2 -60 12 -120 31 -60 20 -113 36 -119 36 -5 0 -11
-21 -12 -46 -2 -54 -7 -64 -33 -64 -25 0 -24 -5 8 -46 15 -20 53 -49 87 -66
34 -16 72 -42 86 -57 14 -15 54 -45 90 -67 35 -21 94 -58 130 -82 96 -63 223
-100 346 -103 136 -3 224 -10 224 -19 0 -4 -11 -5 -25 -3 -30 6 -122 -14 -152
-33 -44 -27 -110 -42 -208 -47 -113 -5 -156 -19 -223 -74 -35 -29 -46 -33 -53
-22 -5 8 -9 20 -9 27 0 24 -82 177 -146 272 -80 121 -159 204 -210 220 -53 17
-61 26 -41 48 21 23 22 36 2 28 -24 -9 -41 3 -71 47 -16 23 -59 74 -95 112
-82 85 -139 154 -139 166 0 5 22 20 49 33 26 14 61 36 77 49 16 13 65 41 108
61 44 20 102 54 130 75 70 52 164 111 179 111 12 0 37 17 151 98 l45 33 16
-38 c20 -48 55 -85 126 -133 30 -21 80 -66 109 -99 34 -39 74 -71 107 -88 43
-20 53 -30 53 -50 0 -23 19 -47 78 -97 l23 -20 -7 41 c-7 43 2 67 39 110 51
58 129 69 288 42 84 -14 139 -18 174 -13 l50 7 -40 18 c-22 9 -53 18 -68 18
-16 1 -26 5 -22 11 3 6 -1 10 -10 10 -8 0 -29 12 -45 28 -16 15 -47 40 -69 56
-21 16 -47 43 -57 62 -17 31 -17 35 -1 69 9 20 34 54 55 77 55 60 193 193 226
219 33 26 109 106 115 121 3 10 -125 -68 -147 -89 -7 -7 -22 -13 -33 -13 -10
0 -19 -4 -19 -9 0 -5 -11 -12 -25 -15 -14 -4 -42 -22 -61 -40 -40 -38 -91 -53
-110 -34 -23 24 -26 62 -7 83 27 30 84 118 79 123 -3 2 -18 -11 -34 -30 l-30
-33 -101 1 c-119 1 -136 10 -128 66 3 21 19 65 36 97 30 58 57 149 47 159 -3
2 -15 -12 -27 -32 -11 -20 -25 -36 -29 -36 -5 0 -32 -15 -61 -33 -51 -31 -55
-32 -151 -29 -54 1 -110 7 -124 12 -14 6 -47 10 -73 10 -26 0 -52 5 -59 12 -6
6 -52 12 -109 14 -54 1 -118 7 -143 13 -25 6 -94 16 -155 22 -60 6 -129 13
-152 16 -25 3 -43 1 -43 -5 0 -18 -135 -24 -202 -9 -164 38 -256 45 -317 24
-27 -9 -35 -9 -38 1 -6 17 -84 15 -119 -3 -16 -8 -38 -15 -49 -15 -11 0 -37
-9 -57 -20 -29 -15 -52 -19 -125 -16 -224 7 -479 62 -567 121 -21 14 -59 37
-84 50 -64 34 -109 60 -124 72 -7 6 -34 16 -61 23 -26 7 -50 17 -53 21 -3 5
-14 9 -25 9 -10 0 -19 5 -19 10 0 6 -11 10 -24 10 -14 0 -28 5 -31 10 -3 5
-17 10 -30 10 -13 0 -28 8 -34 18 -7 13 -21 17 -55 15 -25 -1 -46 2 -46 6 0
10 -152 7 -168 -3 -7 -4 -12 -1 -12 9 0 9 12 18 31 22 26 5 28 8 15 15 -12 7
-25 4 -44 -8 -17 -11 -53 -19 -99 -21 -63 -4 -72 -2 -67 11 4 11 0 16 -14 16
-12 0 -23 4 -27 10 -3 5 -12 7 -20 3 -8 -3 -15 0 -15 6 0 6 11 11 23 11 13 0
32 9 41 19 10 11 25 17 37 14 13 -4 27 2 40 16 11 11 24 21 29 21 6 0 10 5 10
11 0 6 -9 8 -22 4 -22 -7 -22 -6 -5 11 14 15 19 16 26 5 10 -16 36 -5 65 28
24 26 17 35 -18 22 -23 -9 -26 -8 -26 9 0 24 -3 24 -41 4 -17 -8 -33 -13 -37
-10 -3 3 0 6 7 6 7 0 9 4 6 10 -3 5 -22 10 -41 10 -19 0 -33 4 -30 9 3 4 -17
11 -45 14 -28 4 -65 11 -82 16 -18 5 -68 17 -112 27 -44 10 -93 23 -110 30
-16 6 -51 15 -77 18 -53 8 -163 49 -187 70 -9 7 -34 19 -56 26 -21 7 -46 21
-55 30 -8 9 -36 25 -62 34 -53 19 -70 36 -38 36 12 0 18 -4 15 -10 -9 -14 8
-12 30 4 17 12 16 14 -18 25 -39 13 -41 31 -4 31 18 0 19 2 7 10 -8 5 -25 10
-38 10 -12 0 -39 8 -60 17 -33 15 -34 17 -14 20 12 3 20 9 16 14 -3 6 0 16 6
24 11 13 5 15 -41 16 -30 1 -46 3 -36 6 24 6 11 23 -19 23 -42 0 -26 17 24 24
48 6 98 28 57 24 -11 0 -31 0 -45 1 -21 2 -19 4 15 16 l40 14 -73 -2 c-39 -1
-72 1 -72 6 0 4 5 7 10 7 6 0 10 6 10 13 0 11 -11 11 -62 1 -116 -22 -128 -24
-128 -14 0 5 19 15 43 21 56 16 30 24 -33 10 -28 -6 -65 -11 -83 -10 l-32 0
40 20 40 19 -72 -4 c-50 -2 -73 0 -73 8 0 7 -14 10 -40 8 -46 -5 -49 2 -18 29
23 19 23 19 -21 4 -41 -14 -47 -14 -115 11 -297 106 -868 216 -1346 259 -365
32 -494 37 -1165 45 -394 5 -711 12 -740 18 -70 14 -241 78 -275 102 -15 11
-32 20 -37 21 -13 1 -126 83 -130 94 -5 17 99 139 107 125 5 -9 17 -9 51 0 24
7 81 13 127 15 70 2 82 0 77 -13 -4 -12 0 -13 27 -6 18 5 79 7 135 6 81 -2
107 0 127 13 22 15 31 15 80 2 39 -10 73 -11 114 -6 32 5 97 6 143 3 46 -2
172 -6 279 -8 107 -3 207 -9 221 -15 15 -5 29 -7 33 -4 9 9 231 4 234 -6 1 -4
35 -6 73 -3 39 3 101 0 138 -6 254 -43 715 -82 1141 -97 234 -9 499 -20 590
-25 91 -4 228 -11 305 -15 77 -3 158 -8 180 -10 22 -2 85 -6 140 -10 91 -5 98
-5 75 9 -14 8 -31 11 -39 6 -7 -4 -30 -3 -50 3 -20 6 -57 10 -83 10 -27 0 -48
3 -48 7 0 14 -32 21 -45 10 -8 -7 -22 -6 -44 1 -18 6 -45 9 -61 5 -17 -3 -30
-1 -30 4 0 6 -10 10 -23 10 -13 0 -28 5 -34 11 -6 6 -60 13 -120 16 -59 3
-114 10 -120 15 -9 7 -18 7 -27 -1 -10 -8 -21 -9 -33 -3 -10 5 -58 7 -107 6
-52 -2 -98 2 -110 8 -11 6 -36 10 -55 10 -19 -1 -58 5 -86 13 -30 10 -66 13
-91 9 -28 -4 -51 -1 -72 10 -23 12 -31 13 -35 3 -2 -7 -8 -3 -15 10 -10 18
-18 21 -46 16 -26 -4 -39 0 -55 16 -21 21 -21 21 -33 1 -16 -26 -23 -25 -56 5
-32 30 -40 31 -58 7 -12 -16 -14 -16 -44 1 -18 9 -41 17 -53 17 -11 0 -28 7
-37 15 -10 9 -46 18 -83 22 -53 5 -68 10 -72 24 -5 15 -10 17 -25 9 -28 -15
-37 -12 -43 12 -5 17 -9 19 -20 10 -15 -12 -51 -12 -63 1 -4 4 -14 7 -23 7 -9
1 -27 14 -40 30 -19 23 -28 27 -38 18 -10 -8 -19 -6 -36 9 -36 32 -77 54 -87
48 -6 -3 -10 -1 -10 5 0 6 -4 9 -9 6 -5 -3 -12 1 -15 10 -5 14 -9 14 -23 3
-21 -18 -64 -12 -81 12 -7 10 -28 21 -46 25 -26 4 -36 12 -41 32 -4 16 -9 21
-13 14 -13 -21 -89 -26 -116 -8 -14 9 -30 16 -36 16 -5 0 -19 9 -30 20 -11 11
-31 20 -44 20 -13 0 -29 7 -36 15 -7 8 -19 15 -26 15 -8 0 -22 9 -31 20 -10
11 -25 20 -34 20 -8 0 -18 3 -22 6 -3 3 -27 7 -54 8 -45 3 -98 26 -115 50 -3
5 -19 11 -35 13 -44 6 -53 11 -53 33 0 22 -12 25 -41 9 -15 -8 -24 -7 -36 3
-9 7 -18 12 -20 11 -1 -2 -10 -3 -19 -3 -14 0 -14 3 -4 15 16 19 5 34 -12 17
-14 -14 -112 -16 -137 -2 -13 7 -17 17 -13 36 4 24 3 26 -19 19 -13 -4 -26
-11 -29 -16 -7 -10 -32 5 -30 17 2 15 -42 17 -51 2 -6 -9 -9 -5 -9 14 0 31
-14 37 -80 33 -25 -1 -58 5 -74 13 -16 8 -40 11 -55 8 -16 -4 -21 -3 -13 2 23
15 -23 45 -74 47 -25 1 -50 7 -56 13 -6 6 -17 8 -24 5 -9 -3 -14 2 -14 14 0
15 -16 25 -65 42 -36 13 -65 27 -65 31 0 4 -11 11 -25 14 -14 4 -31 18 -37 31
-6 14 -19 27 -29 30 -10 4 -18 11 -16 17 2 12 -52 30 -70 24 -6 -3 -13 -2 -15
2 -8 18 -90 52 -123 52 -61 0 -108 19 -135 55 -14 18 -28 29 -31 23 -4 -6 -31
-3 -75 9 -85 23 -250 29 -354 12 -41 -7 -88 -13 -105 -13 -17 -1 -56 -19 -92
-44 -34 -23 -73 -42 -86 -42 -17 0 -27 -9 -40 -38 -18 -40 -27 -45 -147 -82
-41 -13 -79 -26 -85 -29 -15 -9 -116 -30 -147 -30 -16 -1 -28 -7 -30 -18 -2
-11 -15 -17 -44 -18 -22 -1 -46 -5 -53 -9 -6 -4 -23 0 -37 9 -25 16 -27 16
-48 -4 -17 -16 -25 -18 -34 -9 -9 9 -12 7 -12 -10 0 -12 -4 -22 -10 -22 -5 0
-10 -7 -10 -15 0 -8 -4 -15 -9 -15 -15 0 -23 18 -11 25 17 10 11 25 -10 25
-12 0 -24 -9 -29 -22 -14 -38 -43 -56 -83 -55 -43 1 -70 -24 -64 -60 2 -15 -2
-23 -10 -23 -8 0 -14 -9 -14 -20 0 -26 -16 -26 -23 0 -8 31 -23 24 -41 -20
-14 -36 -19 -40 -51 -40 -22 0 -35 -5 -35 -13 0 -7 -15 -18 -32 -25 -45 -17
-128 11 -128 42 -1 20 -1 20 -15 2 -18 -24 -51 -14 -39 12 4 9 8 34 7 55 -1
20 3 37 8 37 18 0 8 18 -13 23 -22 6 -50 -18 -44 -38 1 -5 -6 -17 -17 -26 -13
-10 -17 -21 -12 -29 6 -10 13 -7 27 11 l20 24 -6 -35 c-4 -19 -14 -42 -23 -50
-14 -13 -15 -13 -10 2 3 10 3 19 -1 22 -9 6 -43 -19 -41 -30 4 -24 -3 -26 -16
-6 -14 19 -14 24 1 47 10 15 17 42 16 62 -1 27 3 36 18 40 25 7 26 23 3 23
-31 0 -46 -16 -38 -39 7 -24 -7 -28 -25 -6 -15 18 0 62 25 71 22 9 18 34 -5
34 -10 0 -24 -9 -30 -21 -7 -11 -20 -29 -31 -40 -21 -21 -22 -54 -2 -54 6 0
15 -3 19 -7 7 -8 -9 -12 -33 -9 -6 1 -20 -12 -29 -29 -10 -16 -22 -30 -26 -30
-4 0 -8 -7 -8 -15 0 -8 -5 -15 -11 -15 -22 0 21 90 44 90 6 0 3 6 -7 12 -15 8
-21 8 -24 0 -2 -7 -8 -12 -13 -12 -4 0 -6 7 -3 15 5 11 -1 15 -19 15 -27 0
-61 -26 -52 -40 6 -9 -23 -22 -34 -15 -8 4 -44 -4 -86 -21 -20 -7 -20 -7 -1
14 10 11 16 25 15 30 -6 16 -50 -6 -56 -28 -6 -23 -23 -27 -23 -5 0 21 -10 19
-38 -7 l-24 -23 8 29 c8 33 -12 33 -30 0 -6 -10 -23 -31 -37 -45 -14 -14 -29
-34 -32 -44 -4 -10 -13 -15 -22 -11 -9 3 -28 -8 -49 -28 -24 -24 -49 -38 -90
-47 -31 -7 -56 -16 -56 -21 0 -4 -18 -8 -40 -8 -22 0 -40 -4 -40 -10 0 -5 -8
-10 -18 -10 -10 0 -22 -3 -25 -7 -10 -9 -138 -10 -165 -1 -14 5 -22 14 -20 25
4 25 -35 29 -62 6 -11 -10 -24 -18 -28 -19 -22 -3 -43 -18 -38 -29 3 -9 -4 -8
-27 3 -18 8 -34 16 -36 18 -2 2 5 18 16 36 10 18 29 60 42 93 36 93 51 124 62
131 13 8 -39 56 -55 51 -6 -2 -12 -13 -14 -25 -4 -25 -11 -27 -47 -10 -22 10
-28 9 -41 -10 -23 -33 -32 -27 -58 32 -13 29 -40 79 -60 111 -29 45 -34 60
-25 71 6 8 8 14 5 14 -4 0 5 17 19 37 14 21 25 46 25 55 0 16 -3 16 -20 6 -11
-7 -20 -19 -20 -26 0 -8 -9 -16 -21 -19 -16 -4 -19 -11 -15 -29 4 -13 4 -24 1
-24 -4 0 -57 49 -118 109 -62 59 -141 134 -177 166 -36 32 -108 97 -160 145
-52 47 -117 106 -145 131 -27 24 -52 46 -55 49 -3 3 -57 52 -120 110 -63 58
-146 134 -185 171 -38 36 -92 86 -120 110 -27 24 -70 63 -95 86 -25 23 -58 54
-75 69 -16 14 -79 72 -139 128 -61 55 -144 132 -185 170 -42 39 -112 104 -156
145 -44 42 -102 96 -129 120 l-48 43 21 27 c74 90 293 426 327 500 55 120 67
177 61 275 -6 98 -25 169 -80 311 -88 228 -191 446 -332 705 -84 155 -174 310
-180 310 -3 0 -5 -553 -5 -1229z m4160 -2841 c0 -29 -4 -40 -15 -40 -17 0 -20
16 -4 26 6 3 9 17 6 30 -2 13 0 24 4 24 5 0 9 -18 9 -40z m-753 -66 c-3 -3
-12 -4 -19 -1 -8 3 -5 6 6 6 11 1 17 -2 13 -5z m-252 -63 c-3 -6 -11 -8 -17
-5 -6 4 -5 9 3 15 16 10 23 4 14 -10z m482 -43 c-3 -8 -6 -5 -6 6 -1 11 2 17
5 13 3 -3 4 -12 1 -19z m2371 -403 c3 -2 -11 -21 -31 -42 -31 -34 -187 -212
-194 -222 -1 -2 -136 -5 -300 -7 -164 -2 -371 -8 -460 -15 -89 -6 -170 -9
-178 -5 -15 5 -15 8 -1 21 8 8 19 15 24 15 6 0 12 7 16 15 3 8 14 15 24 15 11
0 39 13 63 30 24 16 50 30 57 30 6 0 12 5 12 10 0 6 12 10 26 10 14 0 38 7 52
15 38 21 197 75 257 86 112 22 166 30 285 40 69 6 143 8 165 5 22 -3 47 -1 55
5 14 9 118 4 128 -6z m-1783 -621 c-20 -15 -20 -15 -1 -30 11 -8 25 -14 32
-14 7 0 14 -12 16 -27 2 -22 8 -28 26 -26 28 3 28 -7 -3 -65 -14 -27 -25 -63
-25 -85 0 -22 -8 -55 -17 -75 -12 -26 -14 -37 -5 -40 7 -2 10 -13 6 -27 -3
-13 0 -33 6 -45 9 -17 9 -25 -3 -38 -10 -11 -18 -47 -21 -102 -3 -47 -10 -114
-15 -150 -5 -43 -5 -69 2 -78 7 -9 7 -16 -1 -24 -7 -7 -12 -24 -12 -40 0 -21
4 -26 16 -21 12 4 15 2 12 -8 -3 -8 -13 -14 -24 -14 -27 0 -32 42 -39 355 -3
146 -10 299 -15 340 -8 58 -7 87 4 129 14 50 62 118 75 105 3 -3 -3 -12 -14
-20z m-2863 -60 c-2 -24 3 -33 35 -51 l38 -22 -50 -1 c-42 -1 -46 -3 -26 -11
36 -14 19 -21 -33 -14 -47 7 -67 35 -25 35 18 0 20 4 14 44 -6 38 -4 45 12 49
30 8 38 2 35 -29z m128 -84 c18 -12 2 -12 -25 0 -13 6 -15 9 -5 9 8 0 22 -4
30 -9z m320 -189 c0 -19 -23 -71 -31 -71 -10 0 -19 17 -22 42 -3 17 -21 17
-24 0 -4 -29 -13 -24 -13 6 0 31 1 32 45 32 25 0 45 -4 45 -9z m-50 -71 c0 -5
-4 -10 -10 -10 -5 0 -10 5 -10 10 0 6 5 10 10 10 6 0 10 -4 10 -10z m6264
-262 c13 -22 -3 -41 -27 -32 -23 8 -23 57 -1 52 9 -2 22 -11 28 -20z m-6199
-95 c-10 -53 -18 -32 -9 24 4 26 10 40 12 30 2 -11 1 -35 -3 -54z m-118 -15
c-3 -8 -6 -5 -6 6 -1 11 2 17 5 13 3 -3 4 -12 1 -19z m79 -3 c1 -8 -2 -15 -7
-15 -5 0 -9 10 -9 22 0 23 12 17 16 -7z m2454 -203 c-7 -3 -16 2 -21 9 -16 25
-9 32 12 13 13 -12 16 -20 9 -22z m1387 -188 c-3 -3 -12 -4 -19 -1 -8 3 -5 6
6 6 11 1 17 -2 13 -5z m-187 -154 c0 -5 -9 -10 -21 -10 -11 0 -17 5 -14 10 3
6 13 10 21 10 8 0 14 -4 14 -10z m59 -167 c-1 -17 -3 -21 -6 -10 -2 9 -9 17
-14 17 -6 0 -7 5 -4 10 12 19 25 10 24 -17z m-962 -95 c-3 -7 -5 -2 -5 12 0
14 2 19 5 13 2 -7 2 -19 0 -25z m718 -7 c3 -5 1 -12 -5 -16 -5 -3 -10 1 -10 9
0 18 6 21 15 7z m6129 -36 c25 -19 17 -19 -25 0 -24 10 -28 14 -14 14 11 0 29
-6 39 -14z m-5884 -25 c0 -5 -4 -10 -10 -10 -5 0 -10 5 -10 10 0 6 5 10 10 10
6 0 10 -4 10 -10z m17 -12 c-3 -8 -6 -5 -6 6 -1 11 2 17 5 13 3 -3 4 -12 1
-19z m-897 -29 c0 -14 5 -19 14 -16 17 7 36 -11 36 -34 0 -9 11 -28 25 -43 23
-24 23 -27 5 -21 -12 4 -20 2 -20 -5 0 -6 -4 -8 -10 -5 -5 3 -10 19 -10 35 0
31 -15 48 -24 28 -3 -7 -3 -2 0 12 4 14 3 22 -1 18 -9 -9 -34 20 -35 40 0 6 5
12 10 12 6 0 10 -9 10 -21z m915 1 c4 -6 15 -6 30 0 23 9 25 7 25 -20 0 -16 7
-35 15 -44 14 -13 13 -16 -2 -25 -29 -16 -10 -22 20 -6 33 17 36 2 5 -20 -19
-12 -23 -25 -24 -68 0 -37 -4 -52 -14 -52 -20 0 -40 43 -40 88 0 33 -3 37 -27
38 -23 1 -24 2 -6 6 12 2 27 11 34 20 11 13 9 19 -14 37 -15 12 -27 29 -27 39
0 18 15 23 25 7z m-401 -19 c16 -18 16 -19 -1 -17 -20 1 -34 16 -27 28 7 11 9
10 28 -11z m611 -31 c3 -5 1 -10 -4 -10 -6 0 -11 5 -11 10 0 6 2 10 4 10 3 0
8 -4 11 -10z m5922 -42 c17 -17 35 -28 40 -25 12 8 39 -39 64 -110 10 -31 25
-64 32 -72 7 -9 32 -47 55 -86 23 -38 60 -92 82 -120 22 -27 59 -75 82 -105
23 -30 73 -86 110 -123 37 -38 68 -72 68 -76 0 -4 8 -16 18 -27 9 -10 30 -37
47 -59 16 -22 59 -70 96 -107 47 -46 63 -68 53 -72 -8 -3 -27 9 -45 27 -21 22
-28 25 -20 11 9 -18 7 -23 -8 -27 -15 -4 -18 -1 -13 11 5 14 4 15 -10 2 -9 -8
-15 -17 -13 -20 2 -3 -3 -10 -10 -17 -11 -10 -22 2 -56 60 -92 157 -113 185
-155 206 -23 12 -47 21 -55 21 -28 0 -176 53 -247 88 -82 41 -159 103 -218
177 -53 67 -144 207 -144 223 0 24 78 168 110 202 17 18 35 41 41 51 8 15 14
17 37 8 15 -6 41 -24 59 -41z m-6217 28 c0 -3 -4 -8 -10 -11 -5 -3 -10 -1 -10
4 0 6 5 11 10 11 6 0 10 -2 10 -4z m-740 -92 c0 -8 -5 -12 -10 -9 -6 4 -8 11
-5 16 9 14 15 11 15 -7z m10822 -19 c3 -14 1 -28 -3 -31 -5 -3 -9 1 -9 8 0 7
-3 24 -7 37 -4 16 -2 22 4 18 6 -4 13 -18 15 -32z m-10006 -9 c8 -8 14 -33 14
-56 0 -33 -3 -41 -15 -36 -9 3 -15 0 -15 -9 0 -8 7 -15 15 -15 10 0 15 -10 14
-32 -1 -18 -3 -25 -6 -15 -2 9 -9 15 -14 12 -5 -4 -14 14 -21 39 -7 26 -18 46
-25 46 -17 0 -17 67 0 73 22 10 38 7 53 -7z m10014 -75 c0 -10 7 -21 15 -25 9
-3 15 -18 15 -39 0 -19 6 -40 14 -46 13 -11 21 -42 33 -130 3 -20 5 -47 5 -61
0 -14 4 -28 10 -31 5 -3 11 -28 12 -55 2 -27 5 -56 9 -64 5 -15 19 -177 18
-217 0 -12 4 -25 9 -28 12 -7 3 -73 -12 -92 -7 -9 -4 -11 12 -8 17 3 20 1 15
-13 -4 -9 -9 -38 -10 -64 -5 -74 -45 -126 -132 -172 -32 -16 -33 -16 -33 3 0
22 -19 40 -21 19 0 -7 -5 2 -11 21 -7 26 -12 31 -19 20 -6 -10 -9 -2 -9 26 0
22 -4 57 -9 77 -5 20 -5 40 -1 45 9 10 30 74 36 111 3 15 6 115 8 222 2 119 8
207 15 224 7 18 12 80 11 155 -1 153 -2 141 10 141 6 0 10 -9 10 -19z m90 -32
c0 -18 -2 -19 -15 -9 -8 7 -15 16 -15 21 0 5 7 9 15 9 9 0 15 -9 15 -21z
m-10055 1 c3 -5 3 -15 -1 -21 -6 -11 -23 6 -24 24 0 10 18 9 25 -3z m3453 -20
c1 -14 -9 -56 -22 -95 -14 -38 -25 -62 -25 -52 -1 9 -6 17 -12 17 -5 0 -7 -6
-3 -12 4 -7 -16 9 -43 36 l-51 49 26 24 c30 28 63 38 97 29 18 -5 25 -2 25 8
0 8 -10 17 -22 19 -20 3 -20 4 2 3 19 -1 26 -7 28 -26z m-91 14 c-3 -3 -12 -4
-19 -1 -8 3 -5 6 6 6 11 1 17 -2 13 -5z m-3262 -24 c3 -5 1 -10 -4 -10 -6 0
-11 5 -11 10 0 6 2 10 4 10 3 0 8 -4 11 -10z m1804 -526 c-6 -8 -17 -14 -23
-13 -7 0 -6 2 2 6 6 2 12 11 12 19 0 9 5 12 10 9 8 -5 7 -11 -1 -21z m-2589
-60 c0 -8 -5 -12 -10 -9 -6 4 -8 11 -5 16 9 14 15 11 15 -7z m1057 -26 c-3 -8
-6 -5 -6 6 -1 11 2 17 5 13 3 -3 4 -12 1 -19z m1303 2 c0 -5 -4 -10 -9 -10 -6
0 -13 5 -16 10 -3 6 1 10 9 10 9 0 16 -4 16 -10z m-1577 -27 c-7 -2 -19 -2
-25 0 -7 3 -2 5 12 5 14 0 19 -2 13 -5z m1571 -28 c3 -8 1 -15 -3 -15 -5 0
-11 7 -15 15 -3 8 -1 15 3 15 5 0 11 -7 15 -15z m-147 -17 c-3 -8 -6 -5 -6 6
-1 11 2 17 5 13 3 -3 4 -12 1 -19z m-2324 -8 c-3 -11 -7 -20 -9 -20 -2 0 -4 9
-4 20 0 11 4 20 9 20 5 0 7 -9 4 -20z m67 -10 c0 -11 -4 -20 -9 -20 -5 0 -7 9
-4 20 3 11 7 20 9 20 2 0 4 -9 4 -20z m1064 -13 c-5 -15 -44 -40 -51 -34 -6 7
34 47 47 47 5 0 7 -6 4 -13z m-1144 -69 c0 -10 -4 -18 -10 -18 -5 0 -10 15
-10 33 0 24 3 28 10 17 5 -8 10 -23 10 -32z m1188 11 c2 -31 -12 -59 -29 -59
-5 0 -14 12 -20 27 -9 23 -7 30 13 45 31 24 33 23 36 -13z m-854 5 c4 -10 1
-14 -6 -12 -15 5 -23 28 -10 28 5 0 13 -7 16 -16z m7216 -34 c0 -5 -2 -10 -4
-10 -3 0 -8 5 -11 10 -3 6 -1 10 4 10 6 0 11 -4 11 -10z m-7172 -38 c2 -7 -2
-10 -12 -6 -9 3 -16 11 -16 16 0 13 23 5 28 -10z m2507 8 c-3 -5 -11 -10 -16
-10 -6 0 -7 5 -4 10 3 6 11 10 16 10 6 0 7 -4 4 -10z m-1565 -40 c0 -11 -7
-20 -15 -20 -15 0 -21 21 -8 33 12 13 23 7 23 -13z m6602 -61 c61 -50 99 -87
126 -120 11 -15 8 -16 -28 -14 -38 2 -152 -22 -177 -38 -10 -6 -58 -16 -107
-21 -12 -1 -28 -6 -35 -10 -16 -10 -14 -12 -45 58 -29 66 -31 76 -13 76 6 0
40 27 75 60 34 33 67 60 72 60 6 0 10 7 10 15 0 14 3 14 29 0 17 -8 58 -38 93
-66z m-4669 29 c-16 -17 -16 -18 0 -12 10 3 17 1 17 -5 0 -10 -14 -15 -33 -12
-5 1 -6 -3 -2 -8 8 -13 -24 -63 -36 -55 -5 3 -9 -9 -9 -25 0 -17 -5 -31 -11
-31 -7 0 -9 10 -5 28 4 15 7 37 7 49 -1 13 3 22 7 22 20 -3 20 3 2 21 -11 11
-26 17 -35 14 -8 -4 -15 -1 -15 5 0 6 17 11 39 11 24 0 41 5 44 14 4 9 14 12
27 9 20 -5 20 -6 3 -25z m-2825 -7 c3 -8 -1 -12 -9 -9 -7 2 -15 10 -17 17 -3
8 1 12 9 9 7 -2 15 -10 17 -17z m2902 -5 c0 -2 -7 -7 -16 -10 -8 -3 -12 -2 -9
4 6 10 25 14 25 6z m-2857 -61 c4 -8 3 -16 -1 -19 -13 -8 -35 11 -28 23 10 15
23 14 29 -4z m2860 -18 c22 -36 22 -55 -1 -34 -10 10 -24 17 -30 17 -7 0 -12
4 -12 9 0 5 -3 17 -6 26 -11 28 29 14 49 -18z m-1528 -8 c0 -7 -8 -15 -17 -17
-18 -3 -25 18 -11 32 10 10 28 1 28 -15z m-1285 -50 c0 -6 -4 -7 -10 -4 -5 3
-10 11 -10 16 0 6 5 7 10 4 6 -3 10 -11 10 -16z m2320 6 c19 -23 8 -25 -14 -4
-11 11 -15 19 -9 19 6 0 16 -7 23 -15z m-1086 -10 c3 -8 1 -15 -4 -15 -6 0
-10 7 -10 15 0 8 2 15 4 15 2 0 6 -7 10 -15z m1506 5 c0 -5 -4 -10 -10 -10 -5
0 -10 5 -10 10 0 6 5 10 10 10 6 0 10 -4 10 -10z m117 -12 c-3 -8 -6 -5 -6 6
-1 11 2 17 5 13 3 -3 4 -12 1 -19z m7735 -67 c-22 -23 -44 -41 -50 -41 -6 0
-19 -11 -29 -23 -10 -13 -25 -26 -33 -30 -13 -4 -12 -6 1 -6 9 -1 28 8 43 20
14 11 26 16 26 11 0 -5 -12 -17 -26 -27 -14 -9 -23 -19 -20 -22 3 -3 17 4 32
16 l27 21 28 -33 28 -32 -62 -5 c-34 -3 -68 -9 -76 -14 -11 -7 -13 -3 -9 18 8
42 -16 43 -69 2 -25 -20 -51 -36 -57 -36 -6 0 1 8 14 17 14 9 30 22 35 29 6 6
54 44 107 83 54 39 104 80 110 91 7 11 14 16 16 11 2 -5 -15 -28 -36 -50z
m-8647 29 c3 -5 -1 -10 -9 -10 -9 0 -16 5 -16 10 0 6 4 10 9 10 6 0 13 -4 16
-10z m665 0 c0 -5 -11 -10 -24 -10 -16 0 -32 -10 -45 -28 -17 -25 -18 -29 -4
-38 14 -9 12 -15 -16 -43 -25 -26 -35 -31 -41 -20 -6 8 -2 17 8 25 16 11 15
15 -5 42 l-22 30 26 0 c16 0 33 9 44 24 18 24 79 38 79 18z m-2562 -19 c3 -8
-1 -12 -9 -9 -7 2 -15 10 -17 17 -3 8 1 12 9 9 7 -2 15 -10 17 -17z m2732 9
c0 -5 -4 -10 -10 -10 -5 0 -10 5 -10 10 0 6 5 10 10 10 6 0 10 -4 10 -10z
m-856 -19 c4 -5 -3 -7 -14 -4 -23 6 -26 13 -6 13 8 0 17 -4 20 -9z m-819 -11
c3 -5 1 -10 -4 -10 -6 0 -11 5 -11 10 0 6 2 10 4 10 3 0 8 -4 11 -10z m1575
-15 c0 -2 -7 -8 -15 -15 -12 -10 -15 -10 -15 2 0 8 7 15 15 15 8 0 15 -1 15
-2z m-233 -27 c-2 -13 -8 -30 -11 -39 -5 -11 -1 -18 13 -22 12 -3 21 -10 21
-15 0 -12 -56 -42 -77 -42 -18 0 -16 19 3 27 9 3 11 8 5 12 -5 4 -12 25 -15
48 -4 32 -2 41 9 37 7 -3 16 -1 20 5 3 6 13 11 22 11 11 0 14 -7 10 -22z
m-2351 -15 c-7 -7 -26 7 -26 19 0 6 6 6 15 -2 9 -7 13 -15 11 -17z m1668 11
c3 -8 2 -12 -4 -9 -6 3 -10 10 -10 16 0 14 7 11 14 -7z m-754 -4 c0 -5 -8 -10
-17 -10 -15 0 -16 2 -3 10 19 12 20 12 20 0z m316 -15 c4 -17 18 -31 40 -40
21 -8 34 -21 34 -32 0 -15 -2 -14 -16 5 -9 13 -26 22 -41 22 -22 0 -25 -3 -20
-27 3 -16 8 -38 12 -50 5 -14 3 -23 -3 -23 -6 0 -14 9 -17 20 -4 11 -17 32
-31 45 -28 28 -31 49 -6 41 21 -7 49 8 33 18 -14 9 -15 46 -1 46 5 0 12 -11
16 -25z m1544 -7 c0 -5 -4 -8 -10 -8 -5 0 -10 10 -10 23 0 18 2 19 10 7 5 -8
10 -18 10 -22z m-1820 6 c0 -8 -4 -12 -10 -9 -5 3 -10 10 -10 16 0 5 5 9 10 9
6 0 10 -7 10 -16z m-31 -30 c-9 -11 -7 -20 6 -40 23 -35 12 -42 -18 -12 -31
31 -27 79 4 71 15 -4 17 -8 8 -19z m96 -10 c2 -10 6 -28 10 -39 7 -20 7 -20
-10 0 -13 17 -17 18 -25 5 -7 -11 -11 -9 -21 12 -16 37 -6 60 22 49 13 -4 23
-16 24 -27z m969 14 c-3 -13 -11 -25 -16 -26 -4 -2 -15 -11 -23 -19 -21 -20
-45 -10 -38 17 4 16 9 18 19 9 16 -13 37 -2 30 16 -4 13 6 22 27 24 5 1 5 -9
1 -21z m643 -10 c-3 -8 -6 -5 -6 6 -1 11 2 17 5 13 3 -3 4 -12 1 -19z m268 -7
c-3 -6 -14 -11 -23 -11 -13 0 -13 2 4 14 21 15 30 14 19 -3z m-2855 -17 c0 -8
-4 -12 -10 -9 -5 3 -10 13 -10 21 0 8 5 12 10 9 6 -3 10 -13 10 -21z m1120
-44 c0 -25 -28 10 -35 45 l-7 30 21 -30 c11 -16 21 -37 21 -45z m940 49 c7
-11 9 -24 5 -27 -7 -7 -35 25 -35 40 0 16 19 8 30 -13z m2979 -22 c0 -21 -1
-21 -9 -2 -12 28 -12 37 0 30 6 -3 10 -16 9 -28z m-3975 7 c3 -8 2 -12 -4 -9
-6 3 -10 10 -10 16 0 14 7 11 14 -7z m3243 -6 c-3 -8 -6 -5 -6 6 -1 11 2 17 5
13 3 -3 4 -12 1 -19z m-2557 1 c-11 -8 -12 -12 -2 -16 6 -2 12 -11 12 -20 0
-25 -25 -8 -28 20 -3 21 1 27 15 27 15 0 16 -2 3 -11z m300 -28 c0 -3 -14 -14
-31 -24 -27 -15 -31 -15 -25 -1 3 8 6 18 6 20 0 2 7 4 15 4 8 0 15 5 15 10 0
6 -4 10 -10 10 -5 0 -10 5 -10 12 0 6 9 3 20 -7 11 -10 20 -21 20 -24z m-413
7 c-3 -8 -6 -5 -6 6 -1 11 2 17 5 13 3 -3 4 -12 1 -19z m189 -9 c9 -11 15 -22
12 -25 -8 -7 -43 15 -56 36 -9 15 -8 17 8 13 10 -3 26 -14 36 -24z m968 15 c3
-8 2 -12 -4 -9 -6 3 -10 10 -10 16 0 14 7 11 14 -7z m-1824 -25 c0 -5 -4 -9
-10 -9 -5 0 -10 7 -10 16 0 8 5 12 10 9 6 -3 10 -10 10 -16z m1128 0 c-19 -13
-28 -11 -28 5 0 9 7 12 21 9 16 -4 17 -8 7 -14z m3006 -6 c7 -16 24 -68 36
-118 12 -49 35 -133 51 -186 41 -134 35 -134 -15 1 -24 63 -59 147 -79 185
-49 99 -52 114 -30 130 23 18 20 19 37 -12z m-5054 -9 c0 -8 -4 -14 -9 -14
-11 0 -22 26 -14 34 9 9 23 -3 23 -20z m1840 7 c0 -12 -26 -32 -33 -25 -9 10
4 34 19 34 8 0 14 -4 14 -9z m880 -5 c0 -3 -4 -8 -10 -11 -5 -3 -10 -1 -10 4
0 6 5 11 10 11 6 0 10 -2 10 -4z m157 -2 c-3 -3 -12 -4 -19 -1 -8 3 -5 6 6 6
11 1 17 -2 13 -5z m-1827 -58 c0 -12 -5 -7 -19 24 -11 24 -11 24 3 6 9 -11 16
-24 16 -30z m975 25 c3 -5 1 -12 -5 -16 -5 -3 -10 1 -10 9 0 18 6 21 15 7z
m373 -20 c3 -16 -1 -22 -10 -19 -7 3 -15 15 -16 27 -3 16 1 22 10 19 7 -3 15
-15 16 -27z m397 1 c-8 -2 -15 -8 -15 -14 0 -6 -3 -9 -6 -6 -3 4 0 16 6 28 10
18 14 20 21 9 6 -9 4 -15 -6 -17z m7295 19 c0 -5 -7 -12 -16 -15 -14 -5 -15
-4 -4 9 14 17 20 19 20 6z m-8239 -20 c-12 -22 -55 -33 -70 -18 -16 16 -13 31
2 18 10 -8 19 -7 33 4 28 21 47 19 35 -4z m-746 -7 c20 -20 16 -25 -13 -17
-12 3 -22 12 -22 19 0 19 15 18 35 -2z m1618 -15 c-8 -16 -17 -28 -20 -25 -6
5 23 56 31 56 3 0 -2 -14 -11 -31z m-2676 6 c8 -22 -6 -33 -17 -15 -13 20 -12
30 0 30 6 0 13 -7 17 -15z m2415 -7 c-7 -7 -12 -8 -12 -2 0 14 12 26 19 19 2
-3 -1 -11 -7 -17z m-35 -26 c2 -27 0 -33 -7 -22 -11 18 -13 60 -2 60 4 0 8
-17 9 -38z m-542 7 c11 -17 0 -20 -21 -4 -17 13 -17 14 -2 15 9 0 20 -5 23
-11z m-45 -20 c0 -14 -16 -11 -29 5 -10 12 -8 13 8 9 12 -3 21 -9 21 -14z
m8268 -11 c-3 -29 -7 -33 -34 -34 -25 -1 -30 3 -30 20 1 12 11 26 26 33 38 17
42 16 38 -19z m-7402 -10 c-4 -13 -11 -51 -16 -86 -4 -34 -16 -74 -25 -88 -23
-35 -29 -25 -9 15 9 18 17 55 17 82 0 27 4 49 9 49 4 0 8 8 8 18 0 18 8 32 18
32 2 0 1 -10 -2 -22z m-2620 -15 c-10 -10 -19 5 -10 18 6 11 8 11 12 0 2 -7 1
-15 -2 -18z m974 6 c0 -6 -4 -7 -10 -4 -5 3 -10 11 -10 16 0 6 5 7 10 4 6 -3
10 -11 10 -16z m1697 -16 c-3 -10 -5 -4 -5 12 0 17 2 24 5 18 2 -7 2 -21 0
-30z m-2189 5 c16 -16 15 -33 -1 -19 -8 6 -17 8 -20 4 -4 -3 -7 1 -7 10 0 20
11 22 28 5z m-443 -8 c3 -5 1 -10 -4 -10 -6 0 -11 5 -11 10 0 6 2 10 4 10 3 0
8 -4 11 -10z m255 -25 c0 -5 -5 -3 -10 5 -5 8 -10 20 -10 25 0 6 5 3 10 -5 5
-8 10 -19 10 -25z m777 29 c-3 -3 -12 -4 -19 -1 -8 3 -5 6 6 6 11 1 17 -2 13
-5z m1590 -86 c-2 -13 -4 -3 -4 22 0 25 2 35 4 23 2 -13 2 -33 0 -45z m-2594
32 c16 -19 16 -20 -6 -16 -12 1 -23 10 -25 19 -5 23 10 21 31 -3z m1138 -44
c1 -17 6 -39 14 -58 4 -10 5 -18 2 -18 -7 0 -37 66 -48 104 l-8 31 19 -24 c11
-13 20 -28 21 -35z m1129 50 c0 -3 -4 -8 -10 -11 -5 -3 -10 -1 -10 4 0 6 5 11
10 11 6 0 10 -2 10 -4z m-1990 -38 c0 -5 -7 -3 -15 6 -8 8 -15 18 -15 22 0 3
7 1 15 -6 8 -7 15 -17 15 -22z m1850 -35 c0 -7 -9 -13 -21 -13 -15 0 -19 4
-15 16 3 9 6 23 6 32 1 15 3 14 15 -2 8 -11 15 -26 15 -33z m6424 25 c35 -18
56 -40 56 -60 0 -10 -3 -18 -8 -18 -4 0 -47 -29 -96 -65 -87 -63 -89 -64 -112
-47 -50 36 -71 133 -37 168 43 43 137 53 197 22z m-6566 0 c17 -17 15 -25 -6
-30 -12 -3 -22 3 -29 18 -9 20 -8 24 6 24 9 0 22 -5 29 -12z m232 -18 c9 -16
8 -20 -5 -20 -8 0 -15 9 -15 20 0 11 2 20 5 20 2 0 9 -9 15 -20z m-2183 -16
c-9 -9 -28 6 -21 18 4 6 10 6 17 -1 6 -6 8 -13 4 -17z m299 -7 c17 -17 37 -48
44 -67 8 -19 20 -41 28 -49 7 -7 10 -16 6 -20 -3 -3 -14 5 -23 19 -9 14 -26
35 -38 47 -12 12 -24 31 -28 42 -3 10 -12 25 -20 31 -16 13 -20 30 -7 30 4 0
21 -15 38 -33z m2237 -35 c-3 -12 -9 -22 -14 -22 -5 0 -3 11 3 25 13 30 20 28
11 -3z m67 -3 c0 -10 -50 -18 -55 -9 -2 4 -3 9 -1 11 7 7 56 4 56 -2z m-2552
-23 c3 -12 -1 -17 -10 -14 -7 3 -15 13 -16 22 -3 12 1 17 10 14 7 -3 15 -13
16 -22z m7822 -4 c0 -15 -2 -15 -10 -2 -13 20 -13 33 0 25 6 -3 10 -14 10 -23z
m-6813 -4 c-3 -8 -6 -5 -6 6 -1 11 2 17 5 13 3 -3 4 -12 1 -19z m1076 -28 c-3
-11 -12 -20 -19 -20 -8 0 -14 9 -14 20 0 13 7 20 19 20 14 0 18 -5 14 -20z
m5777 4 c0 -14 -3 -14 -15 -4 -8 7 -15 14 -15 16 0 2 7 4 15 4 8 0 15 -7 15
-16z m-5325 -14 c4 -6 -9 -10 -32 -9 -30 0 -34 2 -18 9 27 12 43 12 50 0z
m5968 4 c11 -11 -3 -24 -18 -18 -8 4 -12 10 -9 15 6 11 18 12 27 3z m-8453
-24 c0 -13 -5 -18 -15 -14 -8 4 -15 12 -15 20 0 8 7 14 15 14 8 0 15 -9 15
-20z m928 -1 c-2 -6 -8 -10 -13 -10 -5 0 -11 4 -13 10 -2 6 4 11 13 11 9 0 15
-5 13 -11z m462 -20 c15 -28 5 -23 -15 7 -9 15 -12 23 -6 20 6 -4 16 -16 21
-27z m1020 21 c0 -5 -4 -10 -10 -10 -5 0 -10 5 -10 10 0 6 5 10 10 10 6 0 10
-4 10 -10z m-290 -67 c0 -7 -4 -13 -9 -13 -10 0 -21 24 -21 48 0 13 3 12 15
-4 8 -10 15 -25 15 -31z m-1247 -6 c-8 -13 -23 3 -23 26 0 20 0 20 14 2 8 -11
12 -23 9 -28z m1172 32 c11 -16 1 -19 -13 -3 -7 8 -8 14 -3 14 5 0 13 -5 16
-11z m-2000 -36 c0 -11 3 -25 8 -29 4 -4 7 -2 7 4 0 7 5 12 11 12 5 0 7 -5 4
-10 -3 -6 1 -17 9 -26 9 -9 14 -20 11 -24 -8 -13 -35 0 -35 16 0 8 -6 14 -14
14 -13 0 -56 49 -56 65 0 3 12 5 28 3 20 -2 27 -8 27 -25z m2226 -66 c-16 -16
-20 -5 -8 23 9 22 11 23 14 6 3 -10 0 -23 -6 -29z m-1414 1 c-3 -7 -5 -2 -5
12 0 14 2 19 5 13 2 -7 2 -19 0 -25z m1353 2 c0 -5 -2 -10 -4 -10 -3 0 -8 5
-11 10 -3 6 -1 10 4 10 6 0 11 -4 11 -10z m464 -6 c3 -8 2 -12 -4 -9 -6 3 -10
10 -10 16 0 14 7 11 14 -7z m-290 -19 c18 -13 17 -14 -8 -21 -26 -6 -26 -7
-11 -30 18 -28 19 -34 2 -34 -17 0 -38 36 -32 55 3 8 7 22 10 30 5 18 15 19
39 0z m186 5 c0 -5 -5 -10 -11 -10 -5 0 -7 5 -4 10 3 6 8 10 11 10 2 0 4 -4 4
-10z m-2440 -10 c0 -5 -4 -10 -10 -10 -5 0 -10 5 -10 10 0 6 5 10 10 10 6 0
10 -4 10 -10z m1937 -42 c-3 -8 -6 -5 -6 6 -1 11 2 17 5 13 3 -3 4 -12 1 -19z
m390 0 c-3 -8 -6 -5 -6 6 -1 11 2 17 5 13 3 -3 4 -12 1 -19z m2511 -26 c5 -31
-15 -27 -21 3 -3 16 0 24 7 22 6 -2 12 -13 14 -25z"/>
<path d="M4197 4013 c-4 -3 -7 -11 -7 -17 0 -6 5 -5 12 2 6 6 9 14 7 17 -3 3
-9 2 -12 -2z"/>
<path d="M4232 3820 c0 -14 2 -19 5 -12 2 6 2 18 0 25 -3 6 -5 1 -5 -13z"/>
<path d="M11641 1757 c2 -1 11 -8 21 -15 12 -10 18 -10 24 -1 4 7 3 9 -4 5 -6
-3 -13 -2 -17 4 -3 5 -11 10 -17 10 -6 0 -9 -1 -7 -3z"/>
<path d="M12275 1280 c3 -5 8 -10 11 -10 2 0 4 5 4 10 0 6 -5 10 -11 10 -5 0
-7 -4 -4 -10z"/>
<path d="M5478 2148 c9 -9 15 -9 24 0 9 9 7 12 -12 12 -19 0 -21 -3 -12 -12z"/>
<path d="M8905 1990 c-3 -5 1 -10 9 -10 9 0 16 5 16 10 0 6 -4 10 -9 10 -6 0
-13 -4 -16 -10z"/>
<path d="M10511 644 c0 -11 3 -14 6 -6 3 7 2 16 -1 19 -3 4 -6 -2 -5 -13z"/>
<path d="M5767 9199 c7 -7 15 -10 18 -7 3 3 -2 9 -12 12 -14 6 -15 5 -6 -5z"/>
<path d="M5990 9032 c0 -5 14 -28 31 -51 42 -59 120 -95 172 -80 39 10 61 37
51 62 -9 24 -100 58 -155 59 -27 0 -52 4 -55 9 -7 11 -44 12 -44 1z"/>
<path d="M15946 8744 c-3 -8 -12 -14 -20 -14 -8 0 -27 -6 -43 -14 -83 -43 -98
-46 -139 -32 -108 39 -164 50 -271 52 -117 3 -143 -6 -129 -42 10 -27 -24 -70
-75 -95 -27 -13 -49 -29 -49 -35 0 -14 -49 -25 -79 -17 -11 3 -21 13 -21 23 0
18 -36 34 -52 24 -5 -3 -6 -14 -3 -25 4 -13 1 -21 -12 -25 -53 -18 -93 -41
-103 -59 -6 -12 -21 -25 -33 -30 -12 -6 -35 -37 -52 -70 -16 -33 -33 -62 -36
-65 -4 -3 -10 -19 -13 -37 -5 -22 -3 -34 7 -40 8 -4 22 -21 33 -38 10 -16 23
-33 29 -37 6 -5 3 -8 -6 -8 -9 0 -19 -6 -22 -14 -3 -7 -28 -19 -56 -26 -52
-12 -81 -41 -81 -79 0 -14 8 -21 28 -23 16 -2 27 -9 27 -18 0 -8 7 -16 15 -16
8 -1 22 -2 30 -3 37 -3 42 -17 19 -57 -13 -21 -24 -41 -27 -44 -2 -3 -45 -6
-95 -7 -51 -1 -102 -2 -114 -3 -43 -4 -23 -33 44 -66 42 -21 62 -53 56 -88 -5
-25 -8 -27 -48 -21 -36 6 -46 3 -69 -18 -14 -13 -26 -31 -26 -38 0 -14 52 -49
73 -49 7 0 36 -23 66 -50 50 -45 54 -51 44 -73 -8 -18 -8 -28 -1 -35 6 -6 11
-26 10 -43 -1 -55 25 -79 88 -83 28 -2 24 -55 -5 -86 -15 -16 -32 -27 -39 -24
-16 6 -40 -12 -32 -25 4 -6 16 -16 28 -22 17 -9 19 -8 14 8 -4 12 1 23 15 31
17 11 29 10 75 -8 93 -34 111 -47 117 -80 4 -17 13 -30 21 -30 11 0 13 6 6 29
-14 51 -1 109 32 136 24 20 28 28 18 39 -9 12 -7 13 8 9 12 -3 28 -26 42 -59
22 -51 26 -54 76 -69 28 -8 79 -15 112 -15 62 0 112 -25 112 -55 0 -8 6 -12
14 -9 9 4 14 21 14 48 0 24 5 60 11 82 5 21 14 80 19 131 8 82 12 94 41 125
17 18 31 39 31 46 0 6 3 12 8 12 9 0 42 57 42 73 0 7 -14 24 -32 38 -29 24
-31 31 -31 85 0 38 6 69 16 84 12 20 17 61 21 185 2 88 5 168 5 178 1 13 7 17
24 15 19 -3 22 -10 25 -52 2 -27 -2 -54 -7 -59 -15 -15 -14 -36 4 -53 13 -14
16 -12 25 11 5 14 10 33 10 41 0 38 19 51 85 58 37 4 83 13 103 21 20 7 58 16
85 20 l47 6 0 288 0 289 -24 4 c-15 3 -27 0 -30 -8z m-685 -961 c7 -20 5 -23
-16 -23 -20 0 -25 5 -25 26 0 32 29 30 41 -3z m-213 -15 c7 -7 12 -22 12 -35
0 -20 -5 -23 -35 -23 -28 0 -35 4 -35 19 0 47 30 67 58 39z m320 -13 c31 -16
49 -46 37 -65 -16 -26 -101 11 -108 46 -2 13 -2 26 1 29 10 9 39 5 70 -10z
m-588 -136 c0 -6 -4 -7 -10 -4 -5 3 -10 11 -10 16 0 6 5 7 10 4 6 -3 10 -11
10 -16z m120 -89 c0 -5 14 -10 30 -10 18 0 30 -5 30 -13 0 -16 52 -67 68 -67
7 0 12 -4 12 -9 0 -12 -68 -43 -79 -36 -5 3 -12 1 -16 -5 -3 -5 -15 -10 -27
-10 -17 0 -18 2 -8 15 7 8 9 15 5 15 -4 0 -1 7 6 16 12 14 10 19 -14 38 -27
21 -39 76 -17 76 6 0 10 -4 10 -10z"/>
<path d="M5927 8596 c-4 -10 -5 -21 -2 -24 9 -9 17 6 13 25 -3 17 -4 17 -11
-1z"/>
<path d="M2588 8032 c-36 -22 -35 -32 0 -32 30 0 52 16 52 37 0 17 -18 15 -52
-5z"/>
<path d="M2420 8011 c-15 -28 -12 -61 5 -67 8 -3 31 8 52 25 21 17 46 31 55
31 20 0 24 15 7 26 -7 4 -16 -1 -21 -10 -6 -11 -14 -14 -21 -8 -7 5 -24 12
-39 16 -21 5 -30 2 -38 -13z"/>
<path d="M2265 7920 c-8 -13 5 -13 25 0 13 8 13 10 -2 10 -9 0 -20 -4 -23 -10z"/>
<path d="M2023 7855 c-29 -20 -29 -51 -2 -66 27 -14 46 3 51 46 4 35 -16 43
-49 20z"/>
<path d="M2319 7846 c-20 -6 -52 -24 -72 -39 -30 -23 -43 -27 -71 -21 -31 5
-36 3 -40 -17 -11 -48 -11 -64 -1 -63 30 1 105 28 105 36 0 7 16 8 40 4 59 -9
84 7 75 50 -8 43 4 44 75 7 47 -25 54 -26 88 -13 20 7 40 17 43 22 4 6 15 6
29 -2 28 -15 45 -1 27 24 -10 14 -17 15 -40 7 -40 -16 -107 -13 -141 4 -33 17
-66 18 -117 1z"/>
<path d="M2735 7830 c4 -6 11 -8 16 -5 14 9 11 15 -7 15 -8 0 -12 -5 -9 -10z"/>
<path d="M15915 7813 c-38 -7 -103 -21 -143 -30 l-72 -16 4 -31 c3 -17 8 -65
11 -106 7 -83 16 -100 51 -100 18 0 25 8 33 38 6 20 11 53 11 73 0 53 19 101
39 97 12 -2 18 -22 26 -83 12 -92 18 -105 49 -105 32 0 47 21 53 76 2 26 9 58
14 71 11 29 12 134 2 132 -5 -1 -39 -8 -78 -16z"/>
<path d="M12090 7773 c-30 -48 -36 -63 -22 -62 8 0 65 109 57 109 -3 0 -19
-21 -35 -47z"/>
<path d="M777 7793 c-12 -11 -8 -23 9 -23 9 0 12 -5 8 -12 -4 -7 1 -6 11 4 9
9 14 21 11 27 -8 12 -29 15 -39 4z"/>
<path d="M2789 7798 c-8 -15 -4 -59 7 -80 13 -25 42 -48 60 -48 8 0 -1 104
-11 120 -5 8 -52 15 -56 8z"/>
<path d="M3209 7699 c-14 -14 -19 -28 -15 -42 3 -12 6 -30 6 -39 0 -16 10 -18
74 -18 80 0 101 10 61 28 -14 7 -25 17 -25 24 -1 7 -19 25 -40 40 l-40 28 -21
-21z"/>
<path d="M5430 7701 c0 -6 4 -13 10 -16 6 -3 7 1 4 9 -7 18 -14 21 -14 7z"/>
<path d="M620 7672 c0 -41 53 -58 63 -20 7 25 -7 38 -40 38 -16 0 -23 -6 -23
-18z"/>
<path d="M15635 7650 c-3 -5 1 -10 9 -10 9 0 16 5 16 10 0 6 -4 10 -9 10 -6 0
-13 -4 -16 -10z"/>
<path d="M520 7640 c0 -5 5 -10 10 -10 6 0 10 5 10 10 0 6 -4 10 -10 10 -5 0
-10 -4 -10 -10z"/>
<path d="M2942 7612 c-10 -7 -10 -12 3 -22 17 -14 45 -5 48 15 3 13 -34 18
-51 7z"/>
<path d="M12445 7568 c-54 -42 -158 -151 -209 -218 -54 -70 -127 -192 -119
-200 3 -3 8 0 10 7 6 16 106 155 160 223 54 67 173 190 183 190 4 0 10 7 14
15 7 20 7 20 -39 -17z"/>
<path d="M11991 7544 c-6 -15 -9 -29 -7 -32 3 -2 10 8 16 23 14 36 7 43 -9 9z"/>
<path d="M1724 7396 c-10 -8 -16 -17 -12 -21 11 -11 48 5 48 21 0 18 -11 18
-36 0z"/>
<path d="M3515 7301 c-3 -6 -21 -17 -38 -25 -18 -7 -47 -30 -65 -50 -31 -35
-42 -61 -23 -54 16 6 143 129 138 134 -3 3 -8 0 -12 -5z"/>
<path d="M247 7221 c-16 -32 -9 -55 12 -42 7 5 11 14 7 20 -4 7 -1 9 8 5 11
-4 13 0 9 15 -9 33 -20 34 -36 2z"/>
<path d="M13883 7236 c-25 -6 -43 -16 -43 -23 0 -10 5 -11 18 -4 41 21 202
-29 253 -80 36 -36 78 -7 65 45 -11 43 -93 77 -181 74 -38 -2 -89 -7 -112 -12z"/>
<path d="M1160 7148 l1 -53 19 24 c27 32 27 81 0 81 -18 0 -20 -7 -20 -52z"/>
<path d="M14585 7169 c-4 -5 -4 -22 -1 -36 6 -21 11 -24 34 -18 36 9 45 26 25
47 -18 20 -48 24 -58 7z"/>
<path d="M14374 7159 c-7 -12 15 -41 26 -34 5 3 18 1 31 -3 19 -8 17 -10 -25
-22 l-47 -13 -36 37 c-36 37 -69 46 -91 24 -19 -19 -14 -45 14 -67 21 -16 35
-19 64 -15 40 7 89 -17 90 -43 0 -17 84 -73 109 -73 16 0 21 6 21 25 0 14 7
28 16 32 13 5 13 7 2 14 -10 7 -10 11 0 17 9 6 5 18 -17 49 -16 23 -28 43 -25
46 2 2 -1 9 -8 14 -19 15 -116 24 -124 12z"/>
<path d="M2138 7099 c-21 -12 -23 -32 -4 -48 17 -14 72 4 81 26 11 29 -41 44
-77 22z"/>
<path d="M1340 7051 c-33 -9 -40 -41 -8 -42 13 -1 27 -1 32 0 17 4 25 -23 19
-71 -5 -39 -3 -49 11 -54 25 -10 0 -34 -34 -34 -36 0 -130 -73 -130 -100 0
-26 12 -31 42 -16 14 7 60 17 103 21 81 7 115 26 115 64 0 29 27 86 33 70 4
-11 8 -10 21 6 22 28 20 36 -15 75 l-31 34 -18 -24 c-17 -22 -20 -23 -44 -10
-29 15 -33 28 -11 36 22 9 19 18 -14 37 -31 18 -33 19 -71 8z"/>
<path d="M2043 7035 c0 -8 6 -16 14 -19 7 -3 13 1 13 9 0 7 8 16 18 18 9 3 3
5 -14 6 -21 1 -31 -4 -31 -14z"/>
<path d="M15460 7017 c0 -14 -3 -32 -6 -41 -4 -10 -1 -16 9 -16 13 0 15 8 10
38 -7 45 -13 54 -13 19z"/>
<path d="M14240 6981 c14 -26 30 -35 41 -24 16 16 -2 43 -27 43 -21 0 -23 -3
-14 -19z"/>
<path d="M467 6972 c-9 -2 -15 -7 -12 -12 3 -4 14 -6 25 -3 15 4 20 0 20 -13
0 -24 49 -74 66 -67 8 3 21 0 30 -7 12 -11 12 -15 2 -21 -9 -6 -6 -9 10 -9 12
0 22 -5 22 -11 0 -5 6 -7 13 -3 8 5 8 2 -2 -9 -12 -15 -9 -21 28 -54 94 -87
102 -91 159 -86 44 5 52 3 52 -11 0 -23 35 -33 102 -28 38 2 58 9 62 19 11 27
-5 34 -64 31 -64 -3 -80 4 -64 30 16 25 91 44 150 38 59 -7 68 0 78 55 7 37
20 54 60 74 27 14 32 51 10 76 -18 20 -44 26 -44 9 0 -5 -7 -10 -16 -10 -8 0
-13 -4 -9 -9 7 -13 -34 -51 -56 -51 -10 0 -26 13 -35 30 -19 32 -34 24 -34
-17 0 -35 -22 -73 -41 -73 -15 0 -31 21 -33 45 -1 6 -14 10 -30 10 -27 0 -28
-2 -32 -58 -6 -70 -28 -97 -79 -97 -30 0 -35 3 -35 24 0 13 -9 35 -21 50 -24
31 -18 61 14 70 21 5 20 7 -14 30 -50 34 -136 57 -195 52 -27 -2 -53 -1 -59 3
-5 4 -18 6 -28 3z"/>
<path d="M14296 6931 c-17 -19 -17 -20 3 -30 50 -27 108 4 66 35 -26 19 -49
17 -69 -5z"/>
<path d="M14148 6909 c-24 -14 -18 -93 11 -141 31 -51 69 -50 95 1 21 40 9 86
-30 121 -37 32 -49 35 -76 19z"/>
<path d="M15940 6885 c0 -21 5 -25 30 -25 25 0 30 4 30 25 0 21 -5 25 -30 25
-25 0 -30 -4 -30 -25z"/>
<path d="M11851 6773 c-6 -16 -21 -46 -33 -68 -17 -29 -24 -60 -26 -115 -2
-54 0 -71 7 -60 6 8 11 26 11 40 0 14 10 53 21 85 37 102 48 145 39 145 -4 0
-13 -12 -19 -27z"/>
<path d="M1560 6740 c0 -13 11 -13 30 0 12 8 11 10 -7 10 -13 0 -23 -4 -23
-10z"/>
<path d="M81 6671 c-9 -6 -12 -18 -7 -36 10 -38 -13 -125 -33 -126 -11 0 -9
-4 7 -11 12 -6 22 -20 23 -32 0 -21 1 -21 9 -1 7 16 9 11 9 -22 1 -34 -4 -45
-26 -61 -42 -30 -22 -45 50 -37 59 7 60 7 54 -16 -7 -27 8 -49 34 -49 11 0 28
-9 40 -21 23 -23 60 -20 90 7 11 10 26 13 43 8 20 -5 26 -2 26 10 0 9 4 16 9
16 15 0 7 34 -14 58 -11 12 -27 22 -37 22 -9 0 -27 14 -39 31 l-22 32 21 17
c12 10 18 21 14 25 -4 4 5 5 21 1 26 -6 27 -6 10 14 -25 28 -83 47 -94 29 -4
-7 -29 -15 -55 -16 l-48 -3 19 20 c13 14 16 24 9 28 -6 4 -14 25 -18 47 -12
64 -53 93 -95 66z"/>
<path d="M5630 6663 c0 -13 5 -23 10 -23 13 0 13 11 0 30 -8 12 -10 11 -10 -7z"/>
<path d="M15977 6584 c-8 -8 1 -24 14 -24 5 0 9 7 9 15 0 15 -12 20 -23 9z"/>
<path d="M230 6574 c0 -5 5 -16 10 -24 8 -13 11 -13 26 1 11 11 12 19 5 23 -6
4 -11 2 -11 -5 0 -8 -4 -8 -15 1 -8 7 -15 9 -15 4z"/>
<path d="M2197 6481 c-10 -23 -13 -55 -9 -99 5 -59 -8 -184 -28 -274 -7 -34
-6 -37 10 -28 37 20 50 56 50 141 0 75 13 149 31 174 11 16 -1 68 -21 95 l-19
25 -14 -34z"/>
<path d="M1850 6440 c-22 -13 34 -113 70 -127 40 -15 92 -125 130 -273 16 -61
30 -77 46 -55 10 14 8 25 -12 62 -13 25 -24 53 -24 62 0 9 -14 44 -30 78 -17
34 -33 77 -36 95 -4 18 -15 42 -24 53 -10 11 -21 29 -24 40 -9 29 -79 76 -96
65z"/>
<path d="M3052 6433 c4 -21 33 -25 33 -3 0 8 -8 16 -18 18 -14 3 -18 -1 -15
-15z"/>
<path d="M2525 6430 c-11 -4 -27 -17 -35 -29 -18 -26 -54 -27 -87 -1 -29 23
-62 26 -68 8 -9 -28 -12 -149 -4 -154 5 -3 27 9 49 26 66 52 126 62 420 71 27
1 100 30 100 40 0 6 -15 7 -36 3 -24 -4 -35 -3 -31 3 8 13 -25 23 -75 23 -30
0 -37 -4 -40 -22 -2 -14 -9 -22 -18 -21 -44 6 -92 23 -116 42 -29 23 -30 23
-59 11z"/>
<path d="M11835 6306 c-4 -19 -5 -42 -3 -53 3 -14 7 -12 22 15 16 32 14 72 -4
72 -5 0 -12 -15 -15 -34z"/>
<path d="M508 6273 c7 -3 16 -2 19 1 4 3 -2 6 -13 5 -11 0 -14 -3 -6 -6z"/>
<path d="M6290 6190 c20 -13 33 -13 25 0 -3 6 -14 10 -23 10 -15 0 -15 -2 -2
-10z"/>
<path d="M11020 5661 c0 -5 16 -15 35 -21 20 -6 49 -23 65 -37 31 -26 43 -17
13 9 -18 15 -97 58 -108 58 -3 0 -5 -4 -5 -9z"/>
<path d="M1098 5593 c7 -3 16 -2 19 1 4 3 -2 6 -13 5 -11 0 -14 -3 -6 -6z"/>
<path d="M0 5530 c0 -5 12 -10 26 -10 14 0 23 4 19 10 -3 6 -15 10 -26 10 -10
0 -19 -4 -19 -10z"/>
<path d="M4255 5430 c4 -6 11 -8 16 -5 14 9 11 15 -7 15 -8 0 -12 -5 -9 -10z"/>
<path d="M4070 5399 c-7 -11 -10 -22 -8 -24 9 -9 45 8 56 26 11 17 9 19 -13
19 -14 0 -29 -8 -35 -21z"/>
<path d="M3981 5374 c-14 -13 -23 -25 -20 -28 7 -8 52 30 48 41 -2 6 -15 0
-28 -13z"/>
<path d="M3855 5350 c3 -5 10 -10 16 -10 5 0 9 5 9 10 0 6 -7 10 -16 10 -8 0
-12 -4 -9 -10z"/>
<path d="M4190 5350 c0 -5 4 -10 9 -10 6 0 13 5 16 10 3 6 -1 10 -9 10 -9 0
-16 -4 -16 -10z"/>
<path d="M4065 5341 c-6 -11 9 -23 19 -14 9 9 7 23 -3 23 -6 0 -12 -4 -16 -9z"/>
<path d="M3673 5333 c-15 -5 -18 -33 -4 -33 13 0 33 28 24 33 -4 2 -14 2 -20
0z"/>
<path d="M3940 5312 c0 -10 -5 -23 -12 -30 -17 -17 -2 -28 17 -12 17 14 21 60
5 60 -5 0 -10 -8 -10 -18z"/>
<path d="M3280 5305 c0 -9 6 -12 15 -9 8 4 12 10 9 15 -8 14 -24 10 -24 -6z"/>
<path d="M3452 5269 c2 -6 8 -10 13 -10 5 0 11 4 13 10 2 6 -4 11 -13 11 -9 0
-15 -5 -13 -11z"/>
<path d="M3760 5241 c0 -12 5 -21 10 -21 6 0 10 6 10 14 0 8 -4 18 -10 21 -5
3 -10 -3 -10 -14z"/>
<path d="M3315 5230 c3 -5 8 -10 11 -10 2 0 4 5 4 10 0 6 -5 10 -11 10 -5 0
-7 -4 -4 -10z"/>
<path d="M14821 5194 c0 -11 3 -14 6 -6 3 7 2 16 -1 19 -3 4 -6 -2 -5 -13z"/>
<path d="M15002 4538 c-1 -15 -6 -30 -12 -33 -5 -3 -10 -16 -10 -29 0 -12 -4
-26 -9 -31 -5 -6 -14 -28 -21 -50 -7 -22 -17 -45 -22 -52 -5 -7 -7 -17 -4 -22
4 -5 2 -12 -4 -16 -5 -3 -10 -15 -10 -25 0 -10 -22 -62 -48 -114 -27 -53 -45
-96 -41 -96 5 0 12 6 16 14 4 8 22 29 38 48 51 55 123 161 145 212 17 40 18
51 8 64 -7 8 -16 47 -19 86 -3 39 -6 59 -7 44z"/>
<path d="M10318 4313 c7 -3 16 -2 19 1 4 3 -2 6 -13 5 -11 0 -14 -3 -6 -6z"/>
<path d="M14056 4082 c-4 -13 -5 -26 -2 -29 10 -11 18 4 14 29 l-4 23 -8 -23z"/>
<path d="M14720 3903 c-39 -81 -43 -92 -64 -160 -29 -95 -16 -90 18 7 18 52
46 121 61 153 15 32 25 60 22 63 -2 3 -19 -26 -37 -63z"/>
<path d="M0 2980 l0 -639 37 -26 c23 -15 52 -25 73 -25 47 0 54 -6 83 -71 14
-32 46 -79 71 -105 43 -46 59 -84 36 -84 -5 0 -10 4 -10 10 0 6 -25 7 -62 4
-35 -4 -99 -9 -143 -13 l-80 -6 -3 -1013 -2 -1012 615 0 c338 0 615 2 615 5 0
2 -16 38 -35 79 -19 41 -35 82 -35 91 0 8 -9 24 -20 35 -11 11 -19 24 -17 28
5 18 -28 82 -42 82 -9 0 -22 9 -29 20 -7 12 -8 20 -2 20 5 0 2 9 -7 20 -10 11
-21 20 -26 20 -4 0 -22 10 -40 22 -68 46 -86 58 -90 58 -11 0 -51 -135 -56
-192 -1 -5 -7 -8 -15 -8 -8 0 -16 -5 -18 -12 -8 -22 -36 0 -43 34 -4 18 -16
49 -26 68 l-18 35 -1 -66 c0 -36 5 -80 11 -97 7 -21 7 -37 1 -49 -9 -15 -11
-11 -18 21 -10 58 2 298 20 396 9 47 39 224 67 395 27 171 74 432 104 580 114
572 114 597 5 1241 -41 237 -69 456 -70 542 0 20 -85 14 -135 -10 -30 -15 -48
-19 -53 -12 -7 10 -211 104 -226 104 -4 0 -28 9 -54 21 -90 40 -107 48 -187
79 -44 18 -89 36 -100 41 -11 5 -32 13 -47 19 l-28 10 0 -640z m239 -2056 c2
-2 2 -7 -1 -10 -8 -7 -88 17 -88 27 0 7 80 -8 89 -17z m246 -589 c46 -57 53
-74 18 -42 -28 26 -33 27 -74 18 -28 -6 -45 -7 -47 -1 -5 14 -36 12 -50 -2 -9
-9 -12 -8 -12 5 0 18 62 87 78 87 5 0 7 12 5 28 -5 25 -3 24 23 -13 15 -22 42
-58 59 -80z m120 -135 c3 -5 1 -10 -4 -10 -6 0 -11 5 -11 10 0 6 2 10 4 10 3
0 8 -4 11 -10z m230 -158 c11 -7 6 -5 -12 3 -40 19 -83 58 -83 75 0 7 17 -4
38 -26 20 -21 46 -45 57 -52z"/>
<path d="M10248 3563 c6 -2 18 -2 25 0 6 3 1 5 -13 5 -14 0 -19 -2 -12 -5z"/>
<path d="M15775 3408 c-38 -5 -86 -17 -105 -26 l-35 -17 34 -3 c46 -5 121 -53
121 -79 0 -28 32 -43 91 -43 32 0 59 -4 59 -9 0 -18 -29 -31 -76 -32 -27 -1
-58 -8 -69 -16 -11 -7 -29 -13 -41 -13 -31 0 -54 -10 -54 -24 0 -12 63 -66 78
-66 5 0 19 -11 31 -24 l23 -24 -27 -18 c-55 -39 -80 -63 -65 -64 34 0 182 20
220 30 l40 11 0 209 0 210 -64 0 c-35 0 -70 2 -78 4 -7 2 -44 -1 -83 -6z"/>
<path d="M15875 2883 c-16 -3 -35 -9 -41 -14 -6 -5 -35 -14 -65 -20 -30 -6
-71 -15 -92 -19 -53 -10 -68 -27 -43 -46 26 -18 46 -18 46 1 0 8 4 15 9 15 11
0 71 -58 71 -69 0 -19 62 -28 137 -20 43 4 84 8 91 8 8 1 12 22 12 71 0 68 -1
70 -27 75 -16 4 -36 10 -45 16 -10 5 -19 8 -20 8 -2 -1 -16 -4 -33 -6z"/>
<path d="M15474 2805 c3 -11 6 -36 6 -54 0 -48 16 -27 23 29 5 41 4 46 -14 46
-15 0 -19 -5 -15 -21z"/>
<path d="M15520 2790 c0 -13 7 -20 20 -20 11 0 20 5 20 10 0 6 10 10 23 11 21
1 21 1 -3 9 -44 14 -60 11 -60 -10z"/>
<path d="M15511 2734 c0 -11 3 -14 6 -6 3 7 2 16 -1 19 -3 4 -6 -2 -5 -13z"/>
<path d="M15650 1986 c0 -7 7 -30 16 -51 21 -52 40 -33 23 24 -11 38 -39 58
-39 27z"/>
<path d="M15958 1771 c-21 -25 -7 -51 19 -35 22 14 30 54 11 54 -7 0 -21 -8
-30 -19z"/>
<path d="M15298 1566 c-10 -7 -18 -21 -18 -30 0 -15 2 -15 24 -1 28 18 42 45
23 45 -7 0 -20 -7 -29 -14z"/>
<path d="M13730 1365 c0 -15 4 -24 10 -20 6 3 10 12 10 20 0 8 -4 17 -10 20
-6 4 -10 -5 -10 -20z"/>
<path d="M4890 1231 c0 -28 15 -49 27 -38 8 8 -7 67 -18 67 -5 0 -9 -13 -9
-29z"/>
<path d="M5020 1180 c6 -11 13 -20 16 -20 2 0 0 9 -6 20 -6 11 -13 20 -16 20
-2 0 0 -9 6 -20z"/>
<path d="M4810 1183 c0 -5 -7 -48 -15 -98 -21 -128 -18 -247 10 -485 2 -14 6
-65 10 -115 3 -49 10 -101 15 -115 5 -14 11 -58 14 -98 2 -41 8 -77 12 -80 6
-6 -2 223 -12 318 -5 52 -14 139 -20 195 -3 28 -5 67 -4 89 0 21 -5 45 -12 53
-10 12 -9 17 4 27 15 11 15 15 2 41 -14 28 -11 65 6 65 5 0 1 14 -8 30 -14 26
-15 32 -3 39 10 6 12 19 7 42 -4 23 -1 37 10 50 17 19 13 49 -6 49 -5 0 -10
-3 -10 -7z"/>
<path d="M825 1116 c-7 -37 1 -76 16 -76 5 0 9 6 9 14 0 8 5 16 11 18 8 3 9
13 4 28 -8 24 -8 24 -16 5 -7 -19 -8 -19 -8 3 -1 12 4 22 9 22 6 0 10 5 10 10
0 6 -7 10 -15 10 -8 0 -17 -14 -20 -34z"/>
<path d="M5911 1084 c0 -11 3 -14 6 -6 3 7 2 16 -1 19 -3 4 -6 -2 -5 -13z"/>
<path d="M5943 1073 c-17 -6 -16 -28 2 -43 20 -17 33 -5 27 25 -4 25 -7 27
-29 18z"/>
<path d="M5998 1052 c-2 -17 1 -29 7 -29 7 0 12 13 12 29 0 15 -4 28 -8 28 -3
0 -9 -13 -11 -28z"/>
<path d="M4881 1034 c0 -11 3 -14 6 -6 3 7 2 16 -1 19 -3 4 -6 -2 -5 -13z"/>
<path d="M4852 1020 c0 -14 2 -19 5 -12 2 6 2 18 0 25 -3 6 -5 1 -5 -13z"/>
<path d="M5968 993 c6 -2 18 -2 25 0 6 3 1 5 -13 5 -14 0 -19 -2 -12 -5z"/>
<path d="M806 963 c-6 -14 -5 -15 5 -6 7 7 10 15 7 18 -3 3 -9 -2 -12 -12z"/>
<path d="M6136 921 c-3 -5 1 -12 10 -15 20 -8 29 -1 19 13 -8 13 -22 14 -29 2z"/>
<path d="M762 715 c0 -16 2 -22 5 -12 2 9 2 23 0 30 -3 6 -5 -1 -5 -18z"/>
<path d="M5320 722 c0 -4 7 -16 15 -26 15 -19 15 -19 15 1 0 11 -7 23 -15 27
-8 3 -15 2 -15 -2z"/>
<path d="M4660 676 c0 -9 5 -16 10 -16 6 0 10 4 10 9 0 6 -4 13 -10 16 -5 3
-10 -1 -10 -9z"/>
<path d="M6210 677 c0 -7 9 -20 20 -30 11 -9 20 -12 20 -7 0 6 -9 19 -20 30
-12 12 -20 15 -20 7z"/>
<path d="M5385 639 c-4 -6 -5 -12 -2 -15 2 -3 7 2 10 11 7 17 1 20 -8 4z"/>
<path d="M7670 612 c0 -12 24 -62 30 -62 12 0 9 54 -2 62 -17 10 -28 10 -28 0z"/>
<path d="M7586 561 c21 -21 36 -18 27 4 -3 8 -14 15 -26 15 -20 0 -20 0 -1
-19z"/>
<path d="M736 558 c-10 -30 -14 -101 -6 -88 7 12 11 12 26 -1 16 -13 17 -12
11 4 -4 10 -7 36 -7 58 0 37 -16 54 -24 27z"/>
<path d="M7378 502 c-18 -3 -26 -32 -9 -32 10 0 36 29 30 33 -2 2 -12 2 -21
-1z"/>
<path d="M7500 489 c7 -11 14 -18 17 -15 8 8 -5 36 -17 36 -7 0 -7 -6 0 -21z"/>
<path d="M6350 456 c0 -2 7 -7 16 -10 8 -3 12 -2 9 4 -6 10 -25 14 -25 6z"/>
<path d="M7210 451 c0 -6 5 -13 10 -16 6 -3 10 1 10 9 0 9 -4 16 -10 16 -5 0
-10 -4 -10 -9z"/>
<path d="M12945 441 c11 -4 88 -11 170 -14 85 -3 133 -2 110 3 -57 11 -304 21
-280 11z"/>
<path d="M6350 417 c0 -9 4 -17 9 -17 5 0 12 -10 16 -22 6 -19 8 -20 12 -6 2
10 -5 27 -16 40 -18 18 -21 19 -21 5z"/>
<path d="M7361 389 c-13 -11 -21 -23 -17 -27 4 -4 13 1 20 10 10 13 15 15 24
6 7 -7 12 -18 12 -25 0 -7 4 -13 9 -13 5 0 9 16 8 35 -1 41 -19 45 -56 14z"/>
<path d="M6451 384 c0 -11 3 -14 6 -6 3 7 2 16 -1 19 -3 4 -6 -2 -5 -13z"/>
<path d="M6585 350 c3 -5 8 -10 11 -10 2 0 4 5 4 10 0 6 -5 10 -11 10 -5 0 -7
-4 -4 -10z"/>
<path d="M7552 335 c0 -16 2 -22 5 -12 2 9 2 23 0 30 -3 6 -5 -1 -5 -18z"/>
<path d="M7320 340 c0 -5 5 -10 10 -10 6 0 10 5 10 10 0 6 -4 10 -10 10 -5 0
-10 -4 -10 -10z"/>
<path d="M7434 325 c4 -14 2 -25 -4 -25 -5 0 -10 5 -10 11 0 8 -4 8 -15 -1
-13 -10 -12 -14 2 -28 12 -12 18 -13 21 -4 2 6 10 12 18 12 20 0 18 46 -2 54
-13 5 -15 1 -10 -19z"/>
<path d="M7480 341 c0 -5 6 -14 14 -20 12 -10 13 -8 9 8 -5 21 -23 30 -23 12z"/>
<path d="M6410 331 c0 -6 4 -13 10 -16 6 -3 7 1 4 9 -7 18 -14 21 -14 7z"/>
<path d="M6396 297 c3 -10 9 -15 12 -12 3 3 0 11 -7 18 -10 9 -11 8 -5 -6z"/>
<path d="M7480 291 c0 -6 4 -13 10 -16 6 -3 7 1 4 9 -7 18 -14 21 -14 7z"/>
<path d="M6461 280 c0 -8 4 -24 9 -35 l9 -20 0 20 c0 11 -4 27 -9 35 -9 13
-10 13 -9 0z"/>
<path d="M7250 256 c0 -8 6 -16 14 -19 10 -4 12 0 9 14 -6 22 -23 26 -23 5z"/>
<path d="M7296 261 c-5 -7 -5 -15 -2 -18 3 -3 2 -11 -4 -17 -6 -8 -3 -12 11
-13 20 -2 23 9 10 41 -5 14 -10 16 -15 7z"/>
<path d="M7350 265 c0 -2 10 -10 23 -16 20 -11 21 -11 8 4 -13 16 -31 23 -31
12z"/>
<path d="M7450 240 c0 -5 -6 -7 -14 -4 -7 3 -16 -3 -20 -12 -10 -25 0 -29 29
-10 25 17 33 36 15 36 -5 0 -10 -4 -10 -10z"/>
<path d="M7380 200 c0 -19 3 -21 12 -12 9 9 9 15 0 24 -9 9 -12 7 -12 -12z"/>
<path d="M6460 187 c0 -18 24 -66 31 -62 10 7 0 35 -18 53 -7 7 -13 12 -13 9z"/>
<path d="M7424 140 c4 -24 2 -30 -11 -30 -14 0 -12 -4 7 -25 25 -27 40 -25 40
6 0 11 6 22 14 25 11 4 9 11 -9 30 -31 34 -49 31 -41 -6z"/>
<path d="M7360 140 c0 -5 5 -10 10 -10 6 0 10 5 10 10 0 6 -4 10 -10 10 -5 0
-10 -4 -10 -10z"/>
<path d="M6794 72 c-7 -36 -23 -42 -31 -12 -6 23 -38 27 -47 5 -7 -20 -43 -19
-54 1 -5 9 -15 15 -23 12 -10 -3 -7 -9 9 -23 12 -11 22 -26 22 -35 0 -12 15
-16 74 -18 l74 -3 -6 48 c-6 60 -10 65 -18 25z m-44 -36 c-13 -13 -35 7 -25
24 5 8 11 8 21 -1 10 -8 12 -15 4 -23z"/>
<path d="M7544 63 c-21 -19 -23 -25 -12 -43 19 -29 36 -25 48 12 l10 33 -5
-31 c-3 -28 -1 -31 21 -31 27 0 33 21 8 31 -15 6 -15 8 0 31 17 25 17 25 -15
23 -17 -1 -42 -13 -55 -25z"/>
<path d="M7385 50 c3 -5 8 -10 11 -10 2 0 4 5 4 10 0 6 -5 10 -11 10 -5 0 -7
-4 -4 -10z"/>
<path d="M7890 41 c-16 -31 -12 -41 15 -41 27 0 28 3 19 38 -8 27 -20 28 -34
3z"/>
<path d="M7480 38 c0 -21 18 -43 27 -34 4 5 3 11 -4 13 -7 2 -9 11 -6 19 3 8
0 14 -6 14 -6 0 -11 -6 -11 -12z"/>
<path d="M15583 3 c15 -2 37 -2 50 0 12 2 0 4 -28 4 -27 0 -38 -2 -22 -4z"/>
</g>
</svg>
